<?xml version="1.0" standalone="no"?>
<!DOCTYPE svg PUBLIC "-//W3C//DTD SVG 20010904//EN"
 "http://www.w3.org/TR/2001/REC-SVG-20010904/DTD/svg10.dtd">
<svg version="1.0" xmlns="http://www.w3.org/2000/svg"
 width="1120.000000pt" height="1120.000000pt" viewBox="0 0 1120.000000 1120.000000"
 preserveAspectRatio="xMidYMid meet">
<metadata>
Created by potrace 1.14, written by Peter Selinger 2001-2017
</metadata>
<g transform="translate(0.000000,1120.000000) scale(0.100000,-0.100000)"
fill="#000000" stroke="none">
<path d="M5499 11104 c-25 -30 -63 -42 -74 -24 -12 19 -44 10 -62 -16 -13 -21
-14 -30 -5 -45 7 -10 12 -20 12 -22 0 -2 -53 -3 -117 -2 -125 1 -153 9 -225
67 -34 27 -70 18 -102 -25 -17 -23 -18 -31 -8 -47 18 -29 15 -46 -13 -76 -14
-15 -25 -35 -25 -45 0 -57 101 -82 138 -34 11 14 25 25 31 25 7 0 25 7 41 15
20 10 67 16 150 18 66 2 122 2 124 -1 5 -4 -48 -76 -95 -129 -22 -26 -34 -32
-58 -29 -32 3 -77 -27 -66 -45 7 -11 14 -10 -110 -14 -55 -1 -143 -6 -195 -10
-231 -19 -317 -11 -321 28 -5 51 -11 72 -34 120 -41 87 -136 165 -257 211 -26
10 -51 22 -54 27 -13 22 -140 57 -189 52 -16 -1 -110 -4 -208 -6 -193 -5 -184
-3 -277 -77 -14 -11 -51 -27 -83 -35 -73 -19 -122 -44 -178 -91 -54 -45 -80
-82 -107 -154 -15 -42 -25 -54 -39 -53 -10 2 -33 4 -50 4 -37 2 -43 14 -13 24
26 8 25 21 -4 40 -22 15 -36 15 -116 0 -14 -3 -40 -7 -59 -10 -19 -3 -37 -8
-41 -10 -3 -2 -18 -6 -33 -9 -15 -2 -62 -12 -104 -20 -80 -17 -103 -21 -161
-32 -41 -8 -38 -11 24 -24 83 -17 94 -20 183 -46 47 -15 109 -26 136 -26 28 1
70 -5 95 -13 25 -7 65 -14 89 -14 24 -1 46 -3 48 -5 7 -7 9 -117 2 -121 -3 -2
-35 -7 -70 -10 -72 -6 -77 -4 -178 83 -34 28 -70 52 -81 52 -16 0 -69 -51 -71
-68 0 -4 -2 -26 -5 -50 -3 -25 0 -49 6 -57 8 -10 5 -23 -10 -54 -14 -25 -19
-48 -15 -62 9 -29 63 -49 130 -49 53 0 58 2 93 41 49 54 66 62 135 64 58 1 66
-2 46 -22 -8 -8 -9 -27 -3 -60 4 -26 7 -58 6 -71 -2 -13 11 -43 31 -70 43 -59
48 -74 53 -142 2 -30 6 -65 9 -76 6 -26 53 -50 115 -59 53 -8 100 -47 100 -84
0 -13 7 -32 16 -42 15 -17 15 -22 2 -56 -9 -21 -14 -47 -12 -58 2 -11 4 -37 6
-58 1 -24 15 -59 35 -90 18 -28 31 -52 29 -55 -6 -6 -89 25 -137 51 -171 93
-368 196 -386 202 -13 3 -23 10 -23 15 0 4 -7 10 -15 14 -14 5 -14 2 0 -24 8
-16 15 -51 15 -78 0 -27 5 -64 12 -82 10 -30 12 -32 19 -14 4 10 8 33 9 49 1
28 1 28 12 10 17 -29 27 -420 12 -448 -5 -8 -4 -9 4 -2 12 11 21 90 28 228 6
116 6 117 14 112 13 -8 16 -284 5 -342 -8 -39 -19 -269 -12 -263 2 3 7 39 11
80 6 82 36 221 46 215 7 -4 8 8 11 102 2 65 4 70 15 48 7 -14 13 -46 13 -73 1
-26 7 -69 15 -97 13 -44 15 -46 16 -20 3 45 10 98 13 101 6 6 64 -93 92 -156
19 -45 30 -87 33 -137 3 -40 8 -73 11 -73 12 0 2 149 -14 214 -12 43 8 26 51
-47 69 -114 106 -169 110 -165 2 3 -5 24 -17 47 -11 24 -18 45 -15 49 3 3 6 1
6 -4 0 -5 10 -21 23 -35 12 -14 42 -50 67 -79 90 -106 113 -130 122 -130 7 0
7 4 0 13 -6 6 -13 29 -17 50 -4 20 -11 37 -15 37 -4 0 -10 19 -13 43 -2 23 -8
50 -12 60 -11 26 48 23 85 -5 28 -20 29 -23 13 -40 -16 -18 -16 -19 5 -25 27
-7 27 -8 2 -40 -11 -14 -20 -35 -20 -47 0 -22 -41 -91 -96 -162 -20 -26 -31
-53 -33 -79 -1 -24 -25 -87 -57 -154 -45 -94 -92 -225 -109 -302 -2 -10 -15
-42 -29 -71 -14 -30 -26 -60 -26 -66 0 -23 -17 -11 -38 27 -29 51 -47 57 -84
26 -36 -30 -43 -31 -75 -5 -29 22 -73 26 -91 8 -9 -9 -12 2 -13 53 l0 64 -14
-36 c-7 -20 -12 -53 -11 -73 1 -26 -3 -36 -14 -37 -40 -2 -57 -11 -87 -43 -19
-21 -33 -46 -33 -61 0 -14 -5 -24 -10 -22 -6 1 -24 -22 -41 -50 -21 -36 -26
-53 -17 -53 9 -1 9 -4 -3 -13 -17 -13 -19 -18 -19 -41 0 -8 -7 -22 -16 -30 -8
-9 -13 -20 -10 -25 3 -5 -17 -28 -44 -51 -55 -46 -80 -85 -80 -125 0 -31 15
-34 17 -3 2 26 43 71 43 47 0 -8 7 -24 15 -35 14 -18 15 -17 11 18 -5 45 31
91 67 87 12 -2 27 0 34 4 6 4 18 4 27 1 13 -5 14 -9 5 -20 -6 -8 -8 -14 -5
-14 4 0 -5 -17 -19 -37 -28 -43 -33 -76 -10 -67 16 6 15 -4 -5 -51 -16 -37
-18 -77 -5 -71 10 3 12 -15 10 -77 -3 -58 -1 -72 5 -48 5 23 34 59 93 116 92
89 109 121 113 215 4 107 36 175 78 164 14 -3 28 1 37 12 8 9 12 18 9 20 -3 1
6 15 19 30 13 15 24 37 24 48 0 26 33 44 66 36 23 -5 23 -6 -15 -43 -21 -20
-41 -37 -45 -37 -16 0 -41 -76 -45 -138 -6 -70 -20 -122 -35 -122 -12 0 -41
-59 -34 -70 3 -6 3 -10 -2 -10 -15 0 -31 -48 -20 -59 8 -8 6 -11 -6 -11 -18 0
-33 -41 -22 -59 3 -6 2 -11 -2 -11 -5 0 -16 -12 -26 -27 -18 -27 -18 -27 -13
-4 3 13 1 33 -5 43 -9 17 -11 17 -49 -2 -40 -20 -51 -42 -28 -56 9 -6 5 -10
-12 -14 -40 -9 -40 -54 1 -79 18 -11 37 -18 41 -15 12 8 49 -26 42 -37 -2 -5
-25 -17 -50 -29 -34 -15 -51 -17 -65 -9 -21 11 -46 1 -68 -25 -16 -19 -3 -43
30 -59 15 -8 25 -23 27 -40 2 -15 8 -27 13 -27 5 0 9 -8 9 -17 0 -16 -43 -146
-65 -197 -7 -16 -5 -18 8 -13 14 5 15 1 10 -26 -10 -58 -56 -111 -172 -202
-29 -22 -59 -51 -68 -64 l-16 -24 29 20 c16 11 45 26 64 33 19 7 41 18 49 24
39 30 -17 -33 -65 -74 -70 -58 -105 -130 -111 -224 -3 -47 -1 -66 6 -62 7 5 8
0 3 -16 -9 -25 -10 -204 -1 -213 3 -3 11 13 18 35 13 43 63 88 131 116 19 8
42 23 52 34 9 10 43 23 75 29 60 12 115 34 146 60 9 8 17 11 17 7 0 -5 27 15
59 43 54 47 59 55 56 86 -2 19 1 32 6 29 5 -3 9 -12 9 -20 0 -8 4 -14 9 -14 8
0 20 33 27 75 2 11 11 59 19 106 9 47 13 102 10 122 -4 23 -2 37 4 37 6 0 11
-4 11 -10 0 -5 4 -10 9 -10 5 0 8 12 6 28 -2 15 -7 65 -10 111 -5 66 -10 88
-25 101 -19 17 -19 18 6 46 18 21 23 37 20 55 -3 18 1 32 13 43 11 10 17 25
14 37 -6 20 -6 20 -55 22 -32 1 -68 23 -68 42 0 6 9 16 20 23 17 10 25 10 48
-2 23 -12 32 -12 60 -1 37 16 40 28 12 48 -17 12 -18 17 -8 51 11 33 10 40 -5
51 -10 7 -26 11 -37 8 -12 -3 -20 2 -25 18 -5 14 -3 25 4 27 16 5 14 27 -4 42
-14 11 -13 14 2 25 10 8 14 19 9 30 -3 10 -2 23 2 29 14 18 21 55 11 61 -5 3
-6 34 -2 68 6 66 41 150 90 214 48 65 50 66 56 25 2 -20 0 -43 -6 -50 -6 -7
-11 -46 -13 -88 -1 -41 -6 -83 -9 -94 -4 -13 1 -25 15 -37 12 -10 35 -37 51
-59 28 -41 28 -44 23 -143 -4 -90 -2 -111 21 -184 19 -59 27 -110 30 -183 3
-67 11 -123 24 -162 23 -67 114 -231 150 -270 13 -15 28 -45 33 -67 9 -41 46
-101 86 -142 l22 -23 -20 -20 c-11 -11 -26 -20 -34 -20 -17 0 -69 -40 -61 -48
3 -3 -14 -15 -37 -26 -29 -14 -44 -28 -46 -43 -4 -27 -5 -27 -41 -8 -16 8 -38
13 -49 10 -19 -3 -53 16 -90 52 -8 7 -19 10 -25 6 -7 -4 -32 -21 -57 -38 -57
-38 -327 -175 -346 -175 -8 0 -14 -6 -14 -14 0 -10 9 -13 33 -9 l32 4 -35 -24
c-19 -14 -38 -23 -43 -20 -15 9 -113 -27 -139 -52 -15 -14 -30 -25 -33 -25 -4
0 -32 -20 -63 -44 -31 -24 -73 -53 -92 -65 -31 -19 -32 -21 -12 -21 21 0 18
-4 -20 -35 -24 -19 -73 -53 -110 -76 -38 -23 -68 -45 -68 -50 0 -6 8 -5 19 1
11 5 35 12 53 14 18 2 60 7 93 11 33 4 69 9 80 11 11 2 65 6 120 9 55 3 118 7
140 10 32 3 36 2 21 -7 -10 -6 -53 -12 -94 -14 -77 -3 -90 -10 -93 -49 -1 -11
-3 -32 -4 -47 -5 -36 16 -61 51 -62 27 -1 29 -4 32 -48 4 -57 25 -73 85 -65
50 7 72 28 101 101 28 69 38 60 37 -32 -2 -115 -13 -176 -47 -240 -21 -40 -6
-41 29 -1 18 20 65 73 105 118 41 45 77 93 80 106 8 29 26 29 29 0 0 -11 1
-23 2 -26 1 -3 22 14 47 38 25 23 50 43 55 43 5 0 30 19 54 41 l45 42 -15 -43
c-8 -24 -13 -45 -11 -47 2 -2 17 9 33 24 16 15 84 79 150 141 l121 113 -19 72
c-11 40 -22 107 -26 150 l-6 78 28 -13 c25 -11 29 -10 55 19 16 17 31 29 34
26 7 -7 54 23 90 59 16 17 35 27 43 24 8 -3 23 -6 33 -6 10 0 21 -8 24 -18 3
-10 21 -26 38 -37 18 -10 41 -29 51 -42 10 -13 32 -30 47 -38 16 -8 42 -28 57
-43 15 -16 58 -41 96 -57 37 -15 70 -31 72 -36 3 -4 7 -52 10 -106 2 -54 7
-139 10 -189 6 -86 6 -92 -14 -97 -28 -7 -47 -51 -84 -197 -31 -120 -33 -125
-63 -133 -24 -7 -41 -25 -73 -78 -22 -38 -41 -73 -41 -77 0 -5 -23 -47 -51
-93 -28 -46 -62 -105 -75 -130 -20 -38 -29 -45 -48 -42 -28 6 -101 -30 -211
-101 -44 -29 -101 -64 -126 -79 -26 -15 -66 -48 -90 -75 -24 -27 -55 -55 -68
-62 -14 -7 -36 -23 -50 -36 -14 -13 -66 -44 -115 -69 -50 -26 -118 -65 -151
-89 -55 -39 -60 -45 -57 -76 1 -19 7 -39 13 -46 8 -9 -4 -23 -45 -53 -52 -39
-143 -137 -166 -182 -6 -11 -9 -28 -5 -38 7 -24 -38 -75 -71 -78 -23 -2 -25 1
-19 28 8 37 1 37 -42 -1 -25 -22 -41 -29 -61 -26 -15 2 -63 7 -107 11 -44 3
-88 8 -98 11 -12 4 -29 -6 -51 -30 -18 -20 -38 -36 -44 -36 -17 0 -51 -41 -71
-86 -10 -22 -32 -60 -49 -83 -17 -23 -43 -74 -58 -112 -26 -66 -27 -70 -9 -83
10 -7 15 -18 11 -25 -13 -20 -34 -169 -28 -198 2 -16 9 -34 15 -41 10 -13 -11
-36 -45 -47 -9 -3 -27 -23 -39 -43 -20 -32 -23 -53 -26 -157 -1 -66 -5 -131
-9 -145 -22 -77 -20 -96 13 -170 16 -36 40 -94 53 -129 15 -41 30 -66 42 -69
16 -4 18 -13 15 -61 -2 -31 0 -70 5 -88 10 -37 61 -83 87 -78 10 2 42 6 71 10
29 4 61 8 71 10 12 2 23 -5 30 -18 29 -54 189 -292 266 -394 46 -62 122 -152
169 -200 l86 -88 -1 -87 c-1 -68 3 -91 17 -108 27 -33 51 -8 58 60 3 30 8 58
10 61 2 3 34 -9 71 -28 37 -18 83 -36 101 -39 17 -3 32 -12 32 -18 0 -11 -9
-64 -25 -146 -6 -33 12 -97 30 -104 11 -4 19 3 26 21 14 37 40 161 42 201 0
13 28 12 108 -3 11 -2 43 -5 72 -6 29 -1 57 -6 63 -10 11 -9 11 -45 -1 -199
-7 -93 -15 -162 -20 -171 -3 -3 -7 -31 -11 -60 -3 -30 -7 -64 -9 -76 -2 -12 6
-41 18 -65 17 -33 29 -44 50 -46 15 -2 27 0 28 5 0 4 2 16 4 25 11 56 24 273
28 470 2 65 5 119 8 121 2 3 29 7 59 10 30 4 89 14 130 23 118 26 114 27 111
-28 -3 -51 12 -88 34 -88 23 0 47 46 43 81 -2 21 2 34 10 37 11 3 13 -11 8
-74 -4 -44 -9 -95 -11 -114 -2 -19 -7 -62 -10 -95 -3 -33 -8 -78 -10 -100 -3
-22 -8 -74 -11 -115 -2 -41 -7 -104 -10 -140 -10 -145 -9 -175 12 -211 38 -65
76 -40 74 49 0 26 -1 61 -1 77 -1 49 11 307 16 350 2 22 7 65 10 95 3 30 12
62 20 70 7 8 16 44 20 80 3 36 8 79 11 95 2 17 7 57 10 90 6 59 17 85 36 85 7
0 8 -27 3 -78 -4 -42 -8 -93 -10 -112 -1 -19 -6 -62 -10 -95 -5 -46 -3 -65 9
-80 21 -28 37 -9 41 47 4 62 4 63 15 52 5 -5 13 -77 16 -159 8 -182 8 -224 -1
-296 -10 -75 7 -129 40 -129 14 0 28 8 33 18 5 9 10 177 11 372 2 373 3 409
20 548 6 48 13 125 16 172 2 47 7 119 11 161 4 53 3 83 -6 100 -7 13 -12 41
-12 63 2 37 15 64 97 201 26 43 25 57 -2 33 -41 -34 -117 -71 -121 -58 -3 7
-15 22 -28 33 -13 11 -24 26 -24 33 0 7 -5 14 -12 16 -10 4 9 83 39 156 9 22
-17 13 -83 -32 -61 -40 -69 -43 -98 -34 -46 16 -58 29 -51 52 29 93 51 192 44
196 -4 3 -4 23 1 45 5 22 11 58 14 80 6 38 10 63 21 130 3 17 5 58 6 93 1 57
4 64 25 73 24 8 24 11 19 101 -5 89 -12 169 -20 233 -2 17 -7 51 -10 76 -5 39
-3 49 13 60 10 8 24 24 31 37 16 30 12 140 -9 227 -10 38 -25 104 -35 146
l-18 77 21 27 c23 29 23 49 6 225 -2 25 -6 113 -9 195 -3 83 -7 158 -8 168 -2
10 10 33 27 51 17 18 37 50 45 72 7 21 24 62 36 89 68 150 86 185 94 181 17
-11 72 17 85 43 16 32 48 131 74 232 13 50 29 85 46 102 27 27 29 36 26 147
-2 70 -4 97 -15 160 -6 34 -4 39 9 34 9 -3 16 -10 16 -14 0 -4 23 -18 52 -30
28 -12 64 -31 79 -42 23 -17 26 -25 22 -58 -4 -31 -1 -40 18 -54 30 -21 58
-20 89 1 36 25 119 22 158 -6 19 -13 29 -27 25 -36 -3 -8 2 -33 10 -54 9 -21
13 -41 11 -44 -13 -13 11 -71 46 -112 31 -36 39 -53 38 -83 0 -21 7 -59 16
-85 9 -26 16 -53 16 -59 0 -6 11 -35 25 -64 14 -29 28 -69 31 -89 6 -40 22
-71 78 -154 20 -29 36 -60 36 -69 0 -9 -19 -41 -43 -71 -97 -125 -136 -212
-144 -318 -6 -72 9 -136 42 -173 7 -9 15 -55 18 -110 9 -129 30 -196 89 -271
l28 -37 -25 -16 c-49 -32 -106 -122 -135 -213 -39 -124 -66 -178 -97 -199 -49
-32 -144 -127 -188 -189 -65 -93 -135 -258 -135 -321 0 -12 -9 -32 -19 -46
-11 -13 -22 -42 -26 -63 -8 -51 -9 -54 -25 -90 -25 -60 -29 -96 -14 -151 23
-90 146 -317 219 -404 31 -37 35 -48 29 -74 -4 -17 -7 -42 -6 -54 3 -38 33
-93 58 -104 12 -6 26 -22 30 -37 11 -43 4 -105 -14 -119 -16 -12 -15 -15 5
-32 18 -14 20 -19 8 -24 -22 -8 -18 -25 7 -35 l22 -8 -22 -14 c-24 -15 -30
-45 -10 -51 8 -3 2 -14 -16 -30 -28 -24 -29 -28 -29 -109 0 -82 18 -163 34
-153 5 2 5 12 2 22 -3 9 -2 13 2 9 5 -4 8 -23 7 -41 -2 -29 6 -42 56 -93 32
-32 65 -62 73 -68 8 -5 23 -17 33 -25 18 -14 18 -13 11 10 -7 22 -6 23 7 12 9
-7 21 -26 28 -42 7 -17 16 -30 20 -30 6 0 33 -83 44 -135 2 -11 4 5 5 35 1 30
5 71 11 90 5 19 11 81 13 138 3 102 3 103 -26 133 -16 17 -26 34 -22 37 4 4
13 -2 21 -12 13 -18 14 -18 14 -2 0 9 -7 31 -16 48 -19 36 -119 135 -146 144
-10 3 -26 16 -34 29 -14 22 -14 26 0 40 20 21 10 45 -20 45 -23 0 -35 19 -14
21 6 1 14 2 19 3 17 2 33 24 27 35 -4 6 -17 11 -29 12 l-22 0 23 9 c31 13 30
50 -2 50 -21 0 -24 5 -24 37 0 21 6 50 14 66 8 15 12 32 9 38 -4 5 0 21 9 34
l16 24 47 -20 c26 -11 77 -28 114 -38 116 -33 151 -57 184 -131 17 -38 17 -46
4 -123 -16 -84 -25 -401 -14 -437 3 -11 12 -20 20 -20 14 0 19 -12 30 -72 9
-56 12 -57 228 -49 25 1 27 4 27 47 0 29 4 43 10 39 6 -4 22 1 37 10 25 17 25
17 19 118 -4 56 -9 131 -13 167 -4 36 -7 104 -7 151 0 84 1 87 35 127 19 22
45 62 59 89 13 26 47 74 74 107 54 63 200 196 215 196 5 0 12 -9 16 -19 3 -10
14 -21 24 -24 15 -4 20 -16 23 -58 3 -31 0 -58 -6 -64 -6 -6 -19 -20 -29 -32
-19 -21 -18 -22 13 -38 38 -20 34 -25 -32 -46 -40 -12 -62 -13 -101 -6 -44 9
-52 8 -63 -8 -23 -31 -17 -71 11 -89 18 -12 24 -23 20 -36 -8 -24 20 -50 47
-45 25 5 39 17 41 36 6 39 33 80 64 99 19 11 36 20 38 20 6 0 7 -129 2 -230
-1 -25 2 -34 12 -32 11 2 10 -3 -3 -23 -17 -25 -20 -48 -17 -119 1 -29 2 -29
17 -10 15 19 16 19 8 -1 -4 -11 -8 -49 -10 -85 -1 -36 0 -57 2 -47 5 16 45 25
43 9 -1 -4 -1 -19 0 -33 1 -22 5 -26 25 -22 27 5 64 -30 118 -110 14 -22 66
-81 115 -131 99 -103 203 -227 203 -245 0 -6 5 -11 10 -11 12 0 -22 71 -55
115 -46 63 -105 187 -105 223 0 25 -8 44 -26 64 -19 18 -28 41 -31 70 -3 42
-3 43 14 22 10 -12 23 -30 30 -40 11 -18 11 -18 8 1 -2 11 -4 20 -5 20 -1 0
-4 14 -6 30 -3 17 -14 61 -25 100 -10 38 -19 84 -19 101 0 17 -11 46 -25 65
-13 19 -29 44 -34 56 -6 13 -50 61 -98 107 -79 77 -86 86 -76 108 7 16 7 30 0
46 -8 18 -7 26 4 33 24 15 58 10 80 -12 26 -26 65 -22 62 6 -1 11 5 24 13 28
17 10 18 36 0 60 -18 23 -47 22 -53 -3 -3 -11 -14 -20 -25 -20 -14 0 -18 5
-14 18 7 20 -8 47 -21 39 -16 -10 -35 10 -39 39 -1 16 -6 44 -9 62 -4 23 -1
42 10 58 22 35 26 103 7 136 -14 24 -13 30 12 84 51 107 87 231 87 297 0 119
-30 247 -71 307 -9 14 -25 48 -34 75 -45 136 -166 296 -286 377 -63 43 -68 51
-69 119 0 37 -8 78 -21 106 -11 25 -20 51 -20 57 0 17 -64 57 -102 63 -18 3
-37 12 -42 21 -5 9 -25 30 -44 48 -33 30 -34 34 -23 62 7 16 34 49 60 74 27
25 55 59 64 74 8 16 28 54 45 84 17 30 32 73 35 94 7 51 -16 126 -45 148 l-23
18 25 0 c44 0 67 26 95 107 58 167 73 187 151 199 33 5 44 11 42 22 -6 28 -43
32 -88 10 -52 -26 -91 -78 -126 -171 -32 -85 -57 -114 -103 -123 l-35 -7 27
29 c67 71 103 205 74 273 -26 63 -104 121 -162 121 -23 0 -24 2 -13 23 7 12
20 31 29 42 32 40 69 114 69 137 0 13 9 42 20 63 25 48 61 173 67 235 4 33 15
57 43 91 30 36 39 56 43 97 3 28 8 56 13 63 4 7 7 23 8 37 2 57 100 85 177 51
28 -13 53 -18 72 -13 35 7 55 44 40 77 -12 27 3 41 87 79 30 14 68 38 84 54
16 16 27 24 23 18 -12 -21 -28 -148 -29 -238 -1 -91 12 -136 37 -136 6 0 19
-31 29 -70 32 -125 77 -255 95 -273 10 -10 32 -19 48 -19 29 -1 34 -7 76 -97
25 -53 57 -125 71 -161 15 -35 38 -76 51 -90 l26 -27 -6 -159 c-6 -166 -9
-207 -20 -339 -6 -73 -5 -83 15 -108 20 -25 21 -32 10 -75 -74 -313 -79 -389
-27 -434 25 -23 26 -24 13 -78 -7 -30 -14 -93 -14 -140 -1 -47 -4 -96 -7 -110
-3 -14 -7 -52 -10 -85 -21 -264 -21 -257 -11 -316 6 -38 4 -54 -14 -90 -41
-81 -90 -137 -126 -144 -19 -3 -34 -10 -34 -15 0 -5 14 -7 32 -3 l32 6 -33
-40 c-18 -23 -31 -49 -29 -58 3 -15 6 -15 30 5 25 19 27 19 21 3 -3 -10 -10
-24 -16 -31 -5 -7 -11 -29 -12 -50 -2 -20 -4 -41 -4 -46 -1 -4 -12 -6 -26 -4
-16 3 -30 -1 -41 -13 -10 -11 -13 -19 -8 -19 23 -1 -33 -30 -57 -30 -33 0 -44
-13 -26 -29 10 -8 25 -3 60 19 26 16 46 33 45 37 -4 10 5 13 33 13 19 0 20 -4
15 -45 -4 -25 -11 -57 -17 -72 -13 -35 -6 -60 35 -129 36 -59 37 -75 12 -148
-7 -21 -12 -48 -11 -60 1 -11 3 -36 4 -55 1 -32 2 -33 15 -16 8 11 13 29 11
42 -4 40 10 25 40 -39 31 -66 67 -108 94 -108 10 0 30 -26 50 -65 19 -36 35
-64 36 -63 2 2 5 30 9 62 7 67 12 73 59 70 77 -4 70 6 62 -99 -6 -78 -4 -100
8 -119 21 -31 52 -38 79 -17 21 18 25 50 12 101 -9 35 -5 143 6 154 5 5 16 6
26 2 14 -6 16 -17 10 -89 -4 -45 -7 -91 -8 -102 -1 -11 2 -50 6 -88 6 -43 4
-83 -3 -113 -6 -25 -9 -62 -5 -82 l7 -36 12 47 c13 51 25 70 32 50 7 -21 37
-15 52 9 10 17 15 70 16 203 3 174 10 221 38 249 38 38 84 14 92 -48 3 -22 10
-45 15 -52 6 -6 13 -57 15 -113 l5 -101 -31 -15 c-34 -18 -44 -38 -53 -109 -4
-27 -9 -52 -11 -56 -2 -4 -7 -29 -10 -56 -4 -27 -11 -69 -16 -93 -9 -39 -2
-73 8 -44 7 18 43 57 48 51 8 -7 -5 -38 -16 -38 -5 0 -9 -6 -9 -14 0 -8 -11
-27 -24 -43 l-23 -28 23 -51 c35 -77 128 -166 233 -221 67 -36 72 -24 8 22
l-42 30 56 3 c45 2 66 -2 104 -23 26 -14 55 -25 63 -25 25 0 78 -38 90 -65 6
-14 17 -25 24 -25 15 0 121 -107 161 -160 14 -19 29 -47 32 -63 4 -15 11 -29
15 -32 9 -5 3 28 -10 60 -4 11 -17 44 -29 74 -11 29 -41 87 -67 129 -40 66
-92 177 -82 177 1 0 -12 26 -30 57 -40 72 -82 113 -147 142 -36 17 -55 33 -67
59 -16 34 -16 35 5 30 12 -3 39 -22 60 -41 37 -36 50 -34 22 4 -8 10 -15 26
-15 36 0 9 -18 76 -40 149 -22 73 -40 145 -40 160 0 22 -6 30 -34 39 -27 8
-34 16 -31 31 2 11 -4 28 -13 37 -31 31 -17 65 37 90 50 23 65 45 76 109 7 41
-8 50 -29 18 -9 -13 -29 -31 -44 -39 -26 -13 -29 -13 -41 5 -9 15 -21 20 -43
17 -26 -2 -32 1 -33 18 -1 18 4 22 31 22 17 0 40 4 50 10 11 5 49 10 86 11 36
1 77 4 90 6 29 6 57 -36 59 -87 2 -33 5 -20 22 87 2 11 8 19 13 19 12 -2 134
44 149 56 36 30 19 -36 -29 -117 -35 -59 -35 -59 -131 -82 l-70 -17 -1 -39
c-1 -73 14 -90 91 -97 24 -2 31 -8 33 -30 4 -30 53 -78 81 -78 47 0 65 60 51
167 -5 44 -3 57 17 90 14 21 37 63 52 94 48 97 102 179 117 179 8 0 17 -8 21
-17 3 -10 18 -45 34 -79 16 -33 29 -69 29 -80 0 -10 4 -25 9 -33 6 -9 6 -24 0
-38 -10 -26 -15 -51 -25 -128 -3 -27 -14 -66 -24 -85 -9 -19 -17 -58 -18 -87
0 -28 -8 -65 -16 -82 -9 -16 -16 -32 -16 -36 0 -11 23 -4 52 16 l30 22 -16
-32 c-9 -17 -18 -54 -21 -82 -2 -28 -11 -64 -20 -80 -8 -16 -22 -44 -31 -61
-9 -18 -27 -46 -39 -63 -12 -16 -25 -37 -30 -45 -7 -13 -6 -13 11 0 30 24 85
52 90 47 3 -2 -8 -16 -24 -29 -38 -32 -41 -43 -48 -174 -7 -147 -7 -139 11
-179 16 -32 77 -95 93 -95 4 0 18 -16 31 -36 13 -19 34 -40 45 -46 21 -11 21
-11 0 13 -41 46 -57 91 -57 159 1 36 6 76 11 90 l11 25 1 -30 c1 -29 2 -28 25
19 29 59 50 83 79 92 11 4 59 29 106 57 119 69 157 127 160 247 l2 65 13 -54
c7 -29 12 -63 9 -74 -6 -32 14 -7 22 28 4 17 8 74 10 129 2 93 0 101 -28 154
-17 30 -24 51 -17 47 40 -23 79 -58 79 -71 0 -7 5 -14 10 -14 35 0 -22 143
-105 265 -77 112 -124 176 -140 187 -5 4 -23 8 -40 8 -40 0 -95 48 -149 130
l-44 65 19 27 c27 38 31 103 8 123 -28 26 -8 70 33 73 l31 3 -6 -125 c-4 -98
-3 -128 9 -143 19 -25 31 -5 39 69 7 54 9 58 24 44 15 -13 16 -9 19 51 1 36 6
71 11 77 8 11 8 50 -3 146 -3 33 -12 51 -33 69 l-28 24 26 -6 c34 -9 45 6 48
63 4 95 30 60 30 -42 0 -26 7 -58 16 -71 13 -21 21 -70 24 -151 1 -40 8 -30
16 24 3 25 9 59 12 75 9 49 2 228 -13 310 -3 16 3 37 16 55 11 15 20 32 20 37
0 5 16 28 35 51 38 44 80 62 150 62 56 1 94 35 101 94 3 32 1 48 -11 60 -19
19 -17 18 -76 20 -62 2 -78 17 -77 72 1 54 -12 71 -62 79 -42 7 -80 -7 -80
-30 0 -30 -18 -14 -24 21 -4 19 -9 41 -12 48 -6 17 13 24 79 32 29 4 59 10 67
14 20 11 -42 22 -104 18 -42 -3 -49 0 -52 17 -2 11 2 23 9 27 22 14 66 8 76
-9 10 -17 10 -17 11 -1 0 28 -69 42 -127 25 -38 -11 -54 -23 -77 -56 -15 -23
-26 -45 -22 -48 3 -3 11 7 18 22 6 14 28 35 49 45 56 29 60 5 4 -26 -11 -6
-31 -30 -44 -53 -13 -23 -34 -47 -47 -53 -13 -6 -29 -24 -36 -40 -7 -15 -17
-28 -23 -28 -5 0 -26 -13 -45 -30 -38 -33 -51 -32 -26 2 46 65 67 101 63 112
-10 25 22 77 55 91 18 7 44 25 57 39 13 14 36 28 52 31 20 5 26 11 22 22 -3 9
-8 11 -12 4 -4 -5 -19 -14 -34 -20 -27 -10 -27 -10 -12 13 8 12 27 28 41 35
15 6 24 14 21 18 -4 3 -22 -4 -42 -16 -46 -27 -47 -27 -30 7 9 16 25 29 42 32
25 5 26 6 9 23 -10 9 -14 17 -11 17 4 0 -5 20 -18 45 l-26 45 25 0 c14 0 47
-12 75 -26 64 -32 76 -24 18 12 -49 29 -109 104 -84 104 18 0 20 41 3 59 -11
12 -9 13 7 6 11 -4 35 -10 53 -13 30 -4 33 -7 28 -28 -4 -15 -2 -24 5 -24 6 0
13 9 16 20 3 11 12 20 19 20 32 0 11 17 -22 18 -41 2 -60 12 -23 12 56 1 79
47 43 89 -31 37 -54 41 -124 20 -54 -16 -80 -16 -80 2 0 5 7 9 15 9 7 0 18 6
22 14 4 8 19 16 33 18 17 2 26 10 28 26 8 52 -100 19 -179 -55 -36 -33 -80
-29 -90 10 -4 15 -3 28 2 28 5 1 14 3 19 4 6 1 24 3 41 4 47 2 30 22 -37 44
-32 11 -82 35 -110 52 -65 42 -94 51 -94 31 0 -8 5 -18 10 -21 18 -11 50 -84
56 -125 l6 -40 -59 6 c-32 3 -74 8 -93 11 -19 4 -53 7 -75 8 -22 1 -47 3 -55
4 -8 0 -35 19 -59 40 l-44 39 15 32 c15 32 16 32 88 32 153 0 230 60 230 178
0 36 -28 79 -53 81 -7 1 -19 2 -27 3 -31 3 -71 -17 -91 -45 -16 -23 -19 -38
-14 -68 6 -37 5 -39 -25 -43 -27 -4 -33 -1 -41 20 -5 14 -17 31 -27 38 -24 18
-117 47 -192 60 -8 2 -31 6 -50 9 -19 4 -46 9 -59 12 -39 7 -43 13 -37 62 3
25 7 69 8 96 1 28 7 59 15 70 7 11 13 39 13 63 0 37 -6 50 -47 95 -27 28 -55
57 -63 64 -37 31 -222 123 -247 123 -30 1 -45 23 -168 252 -67 125 -100 168
-128 168 -20 0 -25 13 -56 133 -38 153 -52 184 -87 197 -14 6 -23 14 -20 18 5
9 15 137 21 287 2 44 4 83 4 86 1 3 37 20 81 38 44 19 80 37 80 42 0 4 27 27
60 49 33 22 60 44 60 49 0 10 79 64 98 67 8 2 22 10 32 19 16 15 21 13 70 -29
29 -25 57 -43 61 -40 5 3 16 -5 26 -17 24 -28 53 -38 80 -28 21 8 22 7 17 -64
-3 -40 -14 -105 -25 -146 l-21 -74 49 -50 c26 -28 62 -62 78 -76 17 -14 48
-45 71 -68 23 -24 46 -43 51 -43 6 0 18 -11 27 -25 23 -35 38 -22 19 16 -8 17
-12 33 -8 37 4 4 10 1 12 -6 3 -7 32 -31 66 -54 34 -23 72 -54 85 -70 13 -15
28 -25 33 -22 6 3 5 12 -2 20 -10 12 -9 18 4 31 16 16 17 15 23 -14 3 -17 28
-54 58 -85 28 -30 76 -85 106 -121 60 -72 73 -72 42 1 -25 58 -46 202 -37 259
6 40 22 61 22 29 0 -8 12 -39 27 -69 30 -62 65 -83 122 -74 20 4 39 9 42 11 4
5 9 45 11 95 1 9 9 11 24 7 37 -9 58 14 58 59 -1 89 -8 96 -107 101 -43 2 -82
9 -88 15 -8 7 0 9 29 5 22 -3 85 -7 140 -11 55 -3 129 -10 165 -15 36 -5 81
-11 100 -14 19 -2 50 -8 69 -12 25 -5 32 -4 27 4 -4 7 -11 12 -16 12 -15 0
-112 65 -155 103 -33 30 -36 37 -20 37 17 0 17 2 -5 13 -29 15 -174 120 -208
150 -12 12 -28 22 -35 24 -6 2 -37 9 -68 16 -30 6 -66 20 -80 29 l-24 18 27
-4 c43 -7 44 13 1 30 -65 26 -254 124 -327 170 l-70 44 -32 -31 c-21 -20 -43
-31 -61 -31 -15 0 -40 -7 -55 -14 -33 -17 -38 -17 -38 -1 0 18 -43 57 -63 57
-9 0 -22 12 -29 28 -7 15 -27 31 -43 37 -61 20 -72 46 -35 80 28 26 66 94 75
135 4 19 20 49 35 65 36 38 123 195 145 260 19 57 23 88 29 205 3 53 14 112
29 155 21 61 23 84 20 180 l-4 110 50 56 c31 35 47 60 42 68 -5 7 -7 23 -5 37
1 13 -2 27 -7 30 -6 4 -6 10 0 18 5 6 8 21 6 31 -2 11 -4 28 -4 37 -1 9 -7 23
-14 30 -10 10 -10 22 -2 50 l10 37 46 -67 c58 -85 85 -146 88 -197 1 -22 4
-48 7 -57 3 -10 0 -18 -6 -18 -13 0 -3 -61 11 -70 4 -3 4 -12 -1 -20 -6 -10
-4 -20 6 -31 13 -14 13 -21 2 -38 -9 -15 -10 -23 -1 -32 18 -18 4 -51 -19 -45
-11 2 -26 2 -34 -1 -16 -6 -19 -54 -4 -69 7 -7 4 -19 -11 -38 -16 -20 -18 -30
-10 -40 18 -22 47 -25 78 -9 22 11 32 12 50 2 29 -15 29 -20 0 -47 -17 -16
-33 -21 -55 -18 -49 5 -66 -31 -30 -67 9 -9 14 -26 11 -40 -3 -17 2 -32 16
-46 25 -25 26 -34 7 -50 -14 -12 -20 -44 -31 -176 -5 -57 -4 -68 6 -57 20 18
28 15 23 -10 -7 -41 -6 -72 5 -128 7 -30 14 -71 17 -90 3 -19 10 -53 16 -75
l10 -39 13 32 c8 18 15 32 17 32 2 0 2 -18 0 -40 -3 -24 1 -44 9 -52 37 -35
109 -89 109 -82 0 5 4 5 8 -1 15 -20 89 -53 149 -65 35 -7 70 -21 79 -31 9
-11 40 -30 68 -42 66 -31 103 -69 121 -126 14 -45 14 -43 15 99 3 229 2 239
-26 299 -15 31 -31 59 -37 63 -6 3 -35 28 -64 54 -53 46 -63 64 -26 46 10 -5
38 -18 62 -30 76 -38 68 -28 -102 121 -63 55 -84 84 -92 130 -6 33 -5 36 10
31 16 -6 16 -5 2 22 -8 16 -26 66 -40 111 -21 70 -23 84 -11 94 8 6 14 19 14
28 0 9 17 31 37 48 l38 33 -30 25 c-17 14 -37 22 -45 19 -31 -12 -46 -11 -85
9 -51 25 -49 22 -35 47 6 12 18 20 28 17 28 -6 69 20 76 49 7 26 -5 43 -29 44
-6 0 -11 12 -10 28 0 21 -7 31 -35 44 -31 16 -35 16 -43 2 -5 -9 -7 -27 -4
-41 l5 -25 -23 28 c-12 15 -20 36 -18 45 3 9 -4 26 -14 36 -11 11 -18 24 -15
31 2 6 -3 21 -10 34 -7 13 -13 28 -13 33 -1 15 -25 56 -46 79 -11 11 -19 22
-19 25 -1 3 -2 31 -4 61 -6 97 -21 132 -78 185 -50 45 -52 48 -31 56 29 11 74
-11 67 -32 -2 -9 2 -24 11 -32 8 -9 15 -20 15 -26 0 -6 4 -11 9 -11 5 0 11
-10 13 -22 2 -19 9 -23 36 -23 54 0 77 -50 87 -191 6 -79 7 -84 17 -84 4 0 8
-5 8 -12 0 -7 38 -49 85 -94 47 -45 85 -89 85 -98 0 -9 4 -16 8 -16 4 0 7 24
5 52 -1 29 3 58 8 65 11 13 7 52 -10 96 -14 37 -14 40 4 33 23 -8 18 16 -10
58 -14 20 -25 43 -25 51 0 8 -6 15 -12 16 -7 0 -2 5 11 10 15 6 28 6 36 -1 6
-5 15 -7 18 -4 12 12 66 -18 74 -40 10 -30 10 -49 -1 -63 -5 -8 -4 -13 2 -13
6 0 16 16 23 35 l13 34 18 -30 c10 -16 18 -39 18 -51 0 -27 8 -19 13 13 6 35
-25 89 -72 127 -24 19 -49 52 -61 80 -12 26 -25 55 -30 64 -13 23 -13 31 1 22
6 -3 5 4 -3 17 -40 71 -54 89 -64 85 -6 -2 -11 5 -11 17 0 12 -11 45 -23 74
-23 51 -24 52 -50 38 -24 -13 -32 -11 -75 11 -59 29 -86 30 -110 4 -24 -26
-37 -25 -74 6 -38 32 -52 27 -87 -27 l-26 -42 -29 59 c-16 32 -36 86 -45 119
-30 116 -47 161 -99 270 -29 61 -55 130 -59 155 -7 45 -40 110 -57 110 -5 0
-9 6 -9 14 0 7 -11 24 -24 37 -13 13 -29 44 -35 69 -7 25 -14 52 -18 60 -3 8
-6 32 -7 53 -3 47 29 77 80 77 l33 0 -13 -37 c-7 -21 -11 -44 -8 -52 2 -7 0
-16 -4 -20 -10 -6 -46 -113 -41 -118 2 -1 19 16 38 38 19 23 59 69 89 103 30
33 66 75 78 91 17 22 20 24 11 6 -13 -28 -29 -81 -24 -81 2 0 27 39 56 88 29
48 78 125 109 171 30 45 67 102 82 125 20 29 28 36 28 22 0 -20 0 -20 14 0 15
19 15 19 14 -1 -1 -11 3 -60 7 -110 5 -49 8 -119 8 -155 -1 -60 0 -62 8 -26
13 53 18 103 24 221 8 150 13 174 50 245 l33 65 -4 -105 c-2 -58 -6 -125 -8
-150 -3 -28 -2 -39 3 -30 10 17 20 79 21 125 0 23 3 27 10 15 7 -11 10 -3 11
30 4 174 25 262 77 318 6 7 12 15 12 17 0 4 -84 -40 -265 -137 -166 -89 -295
-151 -301 -145 -4 3 7 28 24 54 39 61 51 152 28 207 -14 34 -14 38 2 54 10 10
17 29 17 42 0 28 46 80 72 81 59 3 124 26 138 50 4 5 9 40 12 77 5 68 22 111
67 171 17 23 23 39 17 49 -5 10 -3 31 5 56 11 30 12 48 4 70 -5 16 -10 30 -10
31 0 1 25 2 56 0 59 -2 101 -24 119 -63 13 -28 47 -42 106 -42 52 0 118 22
120 39 1 6 2 17 4 24 1 6 -7 27 -17 45 -14 26 -16 41 -9 66 17 62 -9 137 -54
158 -28 12 -63 -7 -145 -81 -49 -46 -84 -55 -150 -44 l-45 9 -2 62 -2 62 32 1
c18 1 40 1 49 0 10 -1 27 3 39 10 12 6 54 13 93 16 39 3 96 11 126 20 144 39
244 62 251 57 4 -2 10 0 13 5 5 8 -13 13 -94 27 -14 3 -99 20 -190 39 -218 46
-224 47 -254 35 -29 -10 -35 -37 -11 -46 28 -11 15 -22 -30 -26 -44 -3 -45 -2
-56 32 -33 109 -120 202 -227 243 -37 14 -79 28 -93 31 -15 3 -54 26 -88 52
l-61 46 -187 5 c-292 7 -314 5 -381 -39 -20 -14 -48 -29 -62 -33 -56 -17 -147
-73 -193 -119 -55 -55 -82 -107 -97 -187 -6 -29 -12 -54 -14 -57 -8 -7 -218
-5 -316 3 -52 4 -145 8 -207 9 -79 1 -109 4 -102 12 14 17 -27 47 -64 47 -17
0 -40 7 -50 16 -24 20 -107 138 -101 144 2 2 58 2 123 0 126 -3 188 -21 223
-62 39 -46 148 -11 132 42 -3 12 -14 31 -24 42 -25 29 -29 49 -15 68 17 24 8
53 -23 77 -31 25 -66 26 -89 1 -10 -10 -38 -29 -63 -43 -40 -23 -56 -26 -150
-25 -120 0 -139 3 -114 22 15 10 15 15 3 41 -13 27 -18 29 -71 29 -47 0 -59 4
-75 24 l-19 23 -25 -28z m93 -286 c47 -72 58 -103 36 -103 -7 -1 -12 -5 -11
-11 1 -6 -38 -10 -98 -10 -54 0 -94 3 -88 7 6 3 2 9 -11 12 l-21 5 22 44 c41
80 64 101 126 107 6 0 27 -23 45 -51z m101 -227 c15 0 26 -4 26 -8 -8 -51 34
-94 73 -76 18 8 26 4 50 -23 15 -17 28 -35 28 -39 0 -5 -3 -5 -7 -2 -3 4 -12
2 -20 -4 -10 -9 -214 -20 -323 -18 -263 5 -341 11 -340 28 1 16 58 72 64 62
20 -32 86 9 86 53 0 21 6 25 33 28 29 3 266 2 330 -1z m-603 -31 c0 -11 -19
-41 -42 -66 -34 -37 -47 -45 -72 -42 -23 2 -31 -1 -30 -13 1 -14 -23 -16 -197
-17 l-199 -2 -1 53 c0 28 -2 62 -5 73 -3 21 -1 22 147 22 84 1 153 3 155 4 2
2 57 5 124 6 116 3 120 2 120 -18z m1336 9 l91 2 -6 -38 c-4 -21 -7 -55 -6
-75 l0 -38 -200 3 c-115 1 -199 6 -197 11 6 15 -26 28 -44 18 -18 -10 -23 -6
-81 61 -20 23 -30 43 -26 53 5 14 26 15 192 9 102 -4 227 -7 277 -6z m-1590
-260 c6 -10 -25 -53 -103 -145 -68 -79 -129 -158 -150 -192 -16 -26 -86 -108
-158 -186 -5 -6 -28 -31 -49 -56 -22 -24 -64 -56 -95 -71 -31 -14 -66 -37 -77
-50 -25 -28 -48 -94 -40 -115 7 -17 -32 -35 -64 -29 -16 3 -29 -8 -57 -53 -20
-31 -36 -65 -35 -75 0 -11 -11 -29 -24 -41 -19 -16 -26 -33 -28 -62 -1 -30
-10 -50 -32 -73 l-31 -33 -84 46 c-46 25 -126 67 -176 93 -51 26 -93 51 -93
56 0 4 8 4 18 -1 25 -13 163 -7 172 8 4 6 16 10 26 9 21 -4 64 29 64 48 0 7 7
10 15 7 9 -4 15 0 15 9 0 8 11 18 25 21 14 4 25 13 25 21 0 8 4 15 10 15 5 0
21 18 35 40 24 38 24 42 9 64 -16 25 -14 80 4 98 5 5 27 1 55 -11 l46 -20 83
64 c52 40 90 77 100 99 10 19 32 52 50 73 49 56 76 98 83 126 4 13 28 47 55
76 61 63 75 89 91 171 7 36 16 67 20 70 14 10 288 9 295 -1z m1674 2 c11 -1
17 -13 18 -38 5 -74 32 -133 93 -200 33 -36 59 -73 59 -82 0 -10 9 -28 20 -41
11 -13 20 -26 20 -30 0 -4 16 -25 35 -46 19 -22 44 -57 56 -79 19 -35 94 -102
164 -145 24 -15 27 -14 112 17 7 3 16 -11 22 -33 8 -30 7 -43 -7 -66 -15 -26
-15 -30 3 -61 22 -38 69 -87 83 -87 5 0 12 -7 16 -15 3 -8 9 -14 14 -13 5 2
21 -11 36 -29 16 -19 33 -30 42 -26 8 3 21 0 30 -7 8 -7 43 -14 77 -15 81 -3
83 -3 72 -14 -8 -7 -125 -70 -295 -158 -23 -12 -27 -10 -60 22 -30 29 -35 41
-32 69 4 34 -16 67 -49 79 -11 3 -11 7 -2 17 8 9 2 27 -29 75 -37 60 -41 64
-73 60 -37 -5 -51 7 -53 48 -3 42 -30 95 -61 116 -14 11 -50 29 -79 42 -28 12
-52 28 -52 34 0 7 -12 23 -27 37 -63 58 -183 200 -183 218 0 6 -11 21 -23 34
-13 13 -41 46 -63 72 -38 48 -131 159 -166 198 -10 11 -18 28 -18 38 0 16 11
17 143 14 78 -2 149 -4 157 -5z m-985 -11 c105 -1 245 2 313 6 110 6 124 5
142 -11 11 -10 28 -19 38 -20 23 -1 92 -44 92 -56 0 -6 45 -56 99 -112 55 -56
110 -115 123 -132 12 -16 27 -35 33 -42 5 -6 28 -37 50 -68 30 -42 39 -64 37
-89 -4 -41 24 -77 82 -104 24 -12 63 -44 87 -72 39 -46 43 -55 40 -99 -2 -42
1 -52 29 -80 17 -17 37 -31 45 -31 7 0 25 -16 39 -35 15 -19 22 -35 17 -35
-18 0 -26 5 -23 13 1 4 -2 16 -8 26 -13 24 -61 22 -90 -4 -21 -19 -22 -19 -33
0 -7 11 -13 31 -13 45 -1 14 -2 32 -3 41 -1 15 -47 42 -121 69 -19 8 -57 28
-85 45 -103 63 -200 96 -295 100 -41 2 -82 6 -90 9 -49 19 -98 21 -149 6 -75
-24 -142 -11 -182 34 -16 19 -43 39 -60 46 -28 12 -34 11 -72 -16 l-42 -30
-43 29 c-53 36 -77 31 -130 -23 -56 -55 -114 -67 -196 -39 -33 11 -58 14 -77
9 -16 -5 -29 -7 -29 -4 0 3 -9 0 -20 -6 -11 -6 -55 -12 -97 -14 -90 -5 -192
-35 -266 -81 -29 -17 -61 -36 -72 -43 -11 -7 -45 -21 -76 -32 -74 -27 -93 -46
-97 -95 -1 -22 -9 -46 -16 -54 -12 -11 -18 -10 -37 8 -14 13 -30 19 -41 15
-26 -8 -23 -1 23 45 39 39 41 43 35 85 -7 42 -5 47 36 94 24 27 65 60 91 73
60 29 91 69 84 109 -5 24 5 44 67 127 39 54 114 141 164 193 51 52 107 111
126 131 21 24 46 39 70 43 20 4 40 14 43 22 4 12 27 14 137 10 72 -3 217 -6
321 -6z m29 -701 c33 -26 33 -52 1 -67 -14 -6 -25 -20 -26 -29 0 -15 -2 -14
-11 4 -6 13 -19 25 -29 28 -29 10 -31 34 -2 61 32 29 34 29 67 3z m-247 -149
c63 0 73 -26 34 -84 -50 -73 -100 -64 -158 27 -25 39 -25 41 -7 54 12 9 32 12
54 9 19 -3 54 -6 77 -6z m558 0 c25 -9 25 -11 11 -39 -28 -53 -81 -101 -106
-96 -45 9 -97 78 -85 115 5 15 18 20 68 23 34 2 67 4 74 5 6 1 23 -2 38 -8z
m-299 -55 l27 -25 -18 -40 c-23 -52 -59 -64 -86 -29 -34 43 -35 70 -5 96 34
29 49 29 82 -2z m-478 -21 c-2 -11 -17 -17 -50 -19 -27 -1 -48 0 -48 4 0 4 15
8 32 9 18 2 37 7 42 12 15 15 28 12 24 -6z m950 -7 c6 3 12 -3 12 -12 0 -13
-4 -14 -21 -5 -11 7 -32 9 -45 6 -19 -5 -24 -2 -24 13 0 19 2 19 33 7 17 -7
38 -11 45 -9z m-1746 1 c-7 -7 -12 -22 -12 -35 0 -22 -10 -30 -22 -17 -8 7 24
64 37 64 5 0 4 -5 -3 -12z m643 -39 c3 -9 24 -29 46 -44 23 -15 69 -54 103
-86 33 -33 102 -85 152 -114 53 -32 110 -74 134 -102 59 -67 111 -146 102
-155 -4 -4 -24 -2 -45 4 -31 10 -40 9 -53 -3 -23 -23 -26 -65 -8 -106 9 -21
19 -61 23 -90 l7 -51 -43 -12 c-41 -12 -43 -12 -72 18 -30 33 -59 36 -90 8
-10 -9 -22 -12 -30 -6 -21 12 -64 2 -83 -21 -16 -19 -17 -19 -22 -1 -5 16 -17
19 -79 18 -39 -1 -77 -4 -83 -8 -24 -16 -90 15 -137 63 -39 40 -47 55 -46 82
3 35 -13 72 -43 100 -21 21 -17 69 8 98 25 28 17 77 -17 109 -25 22 -30 34
-25 53 3 14 13 28 22 31 26 10 84 -4 84 -21 0 -8 8 -28 17 -46 10 -18 23 -45
30 -62 l11 -30 2 30 c4 48 2 77 -5 120 -14 84 -13 84 -75 113 l-60 28 30 17
c17 10 30 22 30 26 0 12 75 41 108 41 15 0 33 4 39 8 22 14 63 9 68 -9z m1280
2 c54 -8 79 -19 137 -61 l37 -27 -50 -21 c-27 -12 -53 -22 -58 -22 -8 0 -28
-60 -30 -90 0 -8 -3 -37 -5 -63 -3 -27 -1 -58 3 -70 7 -18 9 -17 15 15 3 20
13 41 20 47 8 6 16 24 19 40 11 51 99 55 111 5 7 -24 -11 -54 -32 -54 -27 0
-29 -77 -3 -128 20 -41 19 -47 -22 -111 -20 -30 -27 -50 -23 -67 5 -19 -8 -40
-70 -111 -41 -49 -84 -105 -95 -125 -20 -40 -45 -53 -34 -19 4 13 -1 27 -14
40 -23 23 -43 26 -70 11 -15 -8 -17 -6 -14 14 6 29 -38 60 -72 52 -21 -5 -24
-3 -23 23 1 35 -30 80 -57 82 -26 2 -27 2 -47 -6 -11 -4 -29 5 -54 29 l-37 35
39 58 c44 66 98 192 115 271 7 29 18 57 26 63 7 6 13 17 13 23 0 10 31 44 87
94 11 11 29 23 40 26 10 3 27 20 38 36 15 23 25 29 40 25 11 -3 43 -9 70 -14z
m-285 -68 c0 -7 -12 -13 -26 -13 -14 0 -37 -9 -51 -20 -14 -11 -32 -20 -39
-20 -8 0 -14 -4 -14 -10 0 -5 -6 -10 -13 -10 -8 0 -18 -9 -23 -20 -5 -11 -31
-37 -59 -58 -27 -21 -59 -52 -70 -70 -20 -32 -38 -42 -33 -19 4 23 -13 116
-22 122 -6 3 -10 13 -10 22 0 9 -8 25 -17 35 -16 18 -15 20 19 52 20 19 40 42
46 52 10 18 11 18 34 -2 63 -58 134 -65 193 -20 20 16 39 35 42 43 5 12 11 7
24 -18 10 -19 18 -40 19 -46z m-763 53 c14 -23 85 -66 110 -66 31 0 87 24 114
49 l22 20 49 -51 c43 -45 46 -52 32 -63 -10 -7 -18 -21 -19 -31 -1 -10 -7 -29
-14 -42 -7 -13 -13 -48 -14 -78 l-2 -56 -20 28 c-47 63 -138 135 -215 166 -19
8 -49 27 -67 42 l-32 27 16 35 c18 37 28 42 40 20z m2353 10 c0 -2 -7 -7 -16
-10 -8 -3 -12 -2 -9 4 6 10 25 14 25 6z m-247 -261 c88 -15 88 -14 66 -36 -10
-10 -19 -28 -19 -39 0 -10 -8 -23 -17 -29 -14 -8 -19 -4 -28 22 -5 18 -20 36
-31 41 -12 6 -29 22 -39 38 l-16 28 26 -10 c14 -5 40 -12 58 -15z m-3440 -16
c-9 -16 -20 -29 -23 -29 -3 0 -14 -16 -24 -35 -11 -19 -22 -35 -26 -35 -12 0
-40 36 -34 43 3 3 -3 19 -14 34 l-21 29 32 2 c18 1 45 6 61 10 16 4 38 9 48 9
18 2 18 1 1 -28z m1969 -21 c-2 -26 -59 -141 -94 -191 -18 -26 -21 -27 -33
-11 -12 17 -42 16 -87 -1 -29 -12 -21 13 26 79 42 58 102 126 111 126 2 0 -2
-19 -10 -41 -19 -53 -19 -79 0 -79 23 0 45 42 52 99 5 41 9 51 22 49 11 -3 15
-12 13 -30z m-289 -34 c15 -5 26 0 40 17 l20 24 -6 -44 c-6 -51 -26 -76 -54
-67 -21 7 -42 68 -34 101 5 19 5 19 9 -2 2 -12 13 -25 25 -29z m17 36 c0 -5
-5 -10 -11 -10 -5 0 -7 5 -4 10 3 6 8 10 11 10 2 0 4 -4 4 -10z m1449 -218 c6
-10 7 -29 4 -40 -3 -12 0 -28 6 -36 11 -13 8 -18 -42 -55 -16 -13 -16 -11 -2
22 9 22 13 54 10 81 -4 47 7 60 24 28z m-2673 -94 c8 -26 43 -37 77 -25 25 8
32 6 60 -21 39 -37 101 -65 128 -57 14 5 19 2 19 -12 0 -10 12 -31 26 -48 14
-16 37 -44 51 -62 l25 -32 -27 -45 c-23 -40 -82 -96 -101 -96 -4 0 -35 21 -69
47 -49 37 -62 53 -63 75 -1 38 -9 48 -37 48 -19 0 -28 9 -39 35 -11 26 -21 35
-38 35 -13 0 -28 -4 -33 -9 -9 -9 -254 175 -255 190 0 4 8 9 18 13 9 3 23 9
30 12 8 4 12 -4 12 -24 0 -16 9 -41 21 -56 17 -22 29 -26 68 -26 34 0 56 -6
75 -21 44 -34 32 3 -15 44 -34 31 -38 39 -29 56 18 36 42 42 67 19 13 -12 25
-30 29 -40z m2526 26 c11 -24 9 -29 -25 -59 -45 -40 -54 -80 -11 -46 19 15 41
21 76 21 l49 0 -143 -113 c-98 -78 -147 -111 -155 -105 -8 6 -18 3 -30 -11 -9
-12 -23 -21 -30 -21 -7 0 -24 -13 -38 -28 -21 -24 -32 -28 -68 -27 -73 4 -158
25 -150 38 11 20 96 131 116 152 11 11 23 32 29 46 6 18 15 25 26 22 25 -6
109 32 121 55 14 26 34 33 69 23 36 -11 54 -1 82 44 27 44 65 48 82 9z m-1064
-163 c-10 -28 -1 -83 16 -93 20 -13 69 -8 88 9 21 19 24 4 7 -29 -10 -18 -8
-24 12 -39 29 -23 68 -24 75 -4 4 8 10 15 14 15 5 0 3 -14 -3 -30 -23 -60 35
-91 93 -50 17 12 30 19 30 15 0 -3 -29 -45 -65 -93 -36 -48 -73 -104 -83 -124
-9 -21 -22 -38 -28 -38 -14 0 -41 -36 -120 -157 -60 -93 -63 -95 -69 -67 -11
47 -26 82 -43 96 -8 7 -21 26 -28 43 l-12 29 -12 -42 c-6 -24 -18 -46 -26 -49
-8 -3 -21 -18 -30 -34 -8 -16 -18 -29 -22 -29 -17 0 -1 125 24 185 18 44 11
115 -14 135 -17 14 -19 23 -12 56 4 21 14 54 22 72 12 30 11 35 -5 47 -14 10
-16 18 -7 39 5 14 16 26 23 26 14 0 55 39 49 46 -2 2 0 23 4 47 4 23 8 52 9
65 1 12 10 31 20 42 17 19 18 19 59 -23 36 -36 41 -46 34 -66z m-1058 23 c0
-7 4 -14 9 -16 13 -4 1 -60 -12 -55 -6 2 -22 24 -36 50 -22 40 -24 49 -11 57
16 10 50 -14 50 -36z m1690 27 c0 -14 -49 -90 -102 -158 -47 -60 -58 -70 -68
-58 -13 16 0 42 68 140 52 74 72 94 88 88 8 -3 14 -8 14 -12z m-2409 -58 c11
-10 29 -25 39 -33 10 -8 58 -46 107 -85 87 -67 90 -71 101 -125 25 -115 17
-239 -20 -330 l-14 -33 -36 49 c-50 69 -56 82 -89 202 -17 59 -44 132 -61 162
-48 87 -80 181 -67 197 14 17 15 16 40 -4z m3135 -13 c24 9 34 -2 14 -15 -5
-3 -10 -15 -10 -26 0 -10 -4 -28 -10 -39 -5 -11 -14 -28 -19 -38 -15 -30 -64
-127 -67 -130 -2 -4 -139 41 -177 59 -15 7 -26 16 -25 20 2 4 55 47 118 97
103 80 117 88 134 77 13 -9 26 -11 42 -5z m-3240 -35 c10 -8 14 -15 8 -15 -15
0 -35 -46 -28 -65 8 -20 -22 -10 -53 18 -25 23 -21 42 16 62 33 18 33 18 57 0z
m904 -30 c0 -4 9 -19 19 -34 16 -22 17 -29 6 -44 -12 -17 -15 -16 -37 17 -17
24 -23 45 -20 65 4 26 6 28 18 16 8 -7 14 -17 14 -20z m2458 7 c14 -19 16 -62
2 -62 -17 0 -25 5 -26 15 -1 23 -16 55 -25 55 -6 0 -8 4 -4 10 7 12 36 2 53
-18z m-1833 -2 c3 -11 17 -23 30 -26 29 -7 51 -59 29 -68 -18 -7 -17 -44 1
-76 21 -37 19 -97 -3 -102 -15 -4 -19 -17 -21 -62 -1 -32 2 -63 8 -70 5 -6 12
-23 15 -36 3 -14 8 -34 11 -46 4 -14 -2 -30 -18 -50 -13 -16 -26 -36 -29 -44
-3 -10 -13 1 -27 31 -22 47 -94 129 -112 129 -6 0 -8 -4 -5 -9 3 -5 -1 -32
-10 -61 -9 -29 -13 -61 -11 -71 8 -31 -7 -14 -48 53 -22 35 -47 72 -57 82 -10
11 -18 23 -18 26 0 4 -11 13 -25 20 -14 7 -25 18 -25 24 0 11 -67 116 -80 126
-3 3 -21 26 -39 53 -18 26 -44 59 -59 74 -15 15 -28 34 -28 43 -1 8 -5 23 -9
33 -6 13 -3 16 9 11 9 -3 16 -12 16 -19 0 -14 11 -19 67 -30 43 -8 70 1 79 27
6 19 7 18 21 -10 16 -33 43 -45 76 -33 12 5 32 4 44 -2 34 -15 68 -1 89 38 18
34 29 41 75 50 12 2 24 7 27 10 11 10 21 5 27 -15z m-592 -217 c47 -65 109
-143 136 -172 28 -30 51 -61 51 -67 0 -7 13 -32 29 -56 16 -24 32 -54 36 -67
l7 -24 -23 23 c-13 12 -40 34 -59 49 -19 14 -111 86 -205 160 -93 74 -172 136
-174 137 -2 2 13 17 33 34 19 17 45 47 56 66 12 19 23 34 25 34 1 0 41 -53 88
-117z m-858 55 c9 -23 18 -59 21 -82 13 -92 61 -204 107 -247 22 -21 17 -25
-13 -9 -10 5 -42 10 -71 10 -30 0 -65 0 -78 0 -13 0 -30 -5 -38 -11 -11 -9
-17 -8 -28 7 -8 10 -15 24 -15 29 0 6 -11 23 -24 40 l-24 30 39 28 c72 53 88
121 45 192 l-24 40 31 10 c43 15 53 10 72 -37z m3243 32 l23 0 -19 -27 c-10
-16 -22 -36 -25 -46 -5 -14 -14 -17 -38 -13 -41 6 -44 10 -29 47 18 43 40 63
53 50 6 -6 22 -11 35 -11z m-3419 -7 c34 -34 61 -81 61 -107 0 -28 -27 -51
-79 -66 -29 -8 -31 -7 -31 19 0 15 -4 31 -9 37 -8 8 25 134 35 134 3 0 13 -8
23 -17z m3521 -64 c8 -30 8 -48 -1 -73 -13 -35 -39 -40 -39 -7 0 9 -6 28 -14
42 -12 24 -11 30 6 58 24 37 34 33 48 -20z m-2359 -31 c76 -98 91 -129 73
-146 -11 -10 -17 -7 -31 15 -10 16 -21 33 -26 38 -67 87 -107 147 -102 155 13
21 33 7 86 -62z m1232 64 c3 -4 -19 -41 -49 -82 -30 -41 -64 -90 -76 -108 -19
-30 -22 -32 -36 -18 -14 13 -12 20 13 58 79 120 133 175 148 150z m-1847 -52
c14 -6 24 -18 24 -29 0 -24 30 -42 61 -38 12 2 32 -4 43 -14 28 -23 414 -328
494 -389 59 -45 61 -49 40 -56 -39 -13 -50 -13 -101 -1 -44 10 -51 9 -62 -7
-13 -17 -15 -17 -52 0 -21 10 -42 24 -46 32 -13 21 -57 34 -72 22 -21 -17 -55
9 -55 42 0 23 -10 32 -62 61 -35 19 -74 38 -87 42 -13 4 -44 22 -68 41 -28 21
-56 34 -74 34 -24 0 -29 4 -25 18 21 66 26 158 13 251 -3 20 -3 28 0 18 2 -10
16 -22 29 -27z m2044 7 c22 -2 42 -6 45 -9 4 -3 -38 -40 -92 -83 -54 -42 -107
-84 -118 -93 -11 -10 -54 -44 -95 -76 -41 -33 -95 -76 -120 -95 l-44 -36 29
50 c15 28 39 70 51 95 12 25 39 61 59 80 20 19 63 72 96 117 l59 81 45 -13
c25 -8 63 -16 85 -18z m395 13 c6 -4 57 -22 115 -40 58 -18 108 -36 112 -39
13 -11 -19 -109 -55 -166 -45 -72 -108 -146 -119 -139 -4 3 -8 22 -8 43 0 20
-5 42 -12 49 -19 19 -60 14 -97 -11 -18 -12 -77 -44 -130 -72 -81 -42 -96 -54
-99 -76 -5 -39 -35 -64 -61 -50 -27 15 -25 15 -61 -18 -41 -37 -96 -55 -104
-34 -10 24 -92 7 -143 -29 -35 -26 -48 -29 -77 -24 -20 4 -36 9 -36 11 0 26
73 93 273 250 208 163 241 186 266 182 30 -5 69 22 54 36 -3 4 -1 7 5 7 17 0
60 43 64 65 1 11 19 32 38 46 31 25 49 27 75 9z m380 -105 c26 -4 47 -15 60
-31 11 -13 32 -33 47 -42 l27 -18 -25 -29 c-13 -16 -27 -39 -30 -51 -6 -24
-30 -39 -39 -24 -3 4 -26 8 -51 8 -25 0 -48 2 -50 5 -3 3 -30 -1 -59 -8 l-54
-12 34 40 c20 24 44 69 57 108 12 37 26 65 32 64 6 -2 29 -7 51 -10z m-3346
-176 c9 -26 7 -31 -16 -46 -44 -29 -153 -14 -167 23 -3 7 13 33 36 58 l42 45
48 -26 c31 -17 50 -35 57 -54z m3571 38 c27 -23 60 -70 60 -85 0 -8 -44 -15
-98 -15 -40 0 -72 27 -65 53 6 23 51 70 67 70 6 0 22 -10 36 -23z m-2249 -23
c12 -20 22 -43 23 -52 1 -10 7 -27 14 -39 11 -21 13 -73 2 -73 -3 0 -26 39
-52 87 -44 80 -46 87 -30 99 9 7 18 14 19 14 1 0 11 -16 24 -36z m821 -33
c-51 -90 -57 -96 -85 -99 l-28 -4 17 34 c9 18 32 57 50 86 30 47 36 51 53 40
19 -12 19 -13 -7 -57z m-1803 -75 c18 -19 5 -54 -22 -58 -55 -8 -103 13 -57
25 25 6 26 34 3 60 -18 19 -17 19 22 3 22 -9 46 -23 54 -30z m2858 15 c-13
-36 3 -61 36 -55 20 4 19 3 -2 -6 -68 -30 -136 0 -103 45 5 8 53 34 79 44 1 1
-4 -12 -10 -28z m-3125 -6 c10 -13 22 -24 26 -22 4 1 18 -8 32 -21 13 -12 47
-31 74 -41 29 -12 42 -20 30 -20 -25 -1 -101 -40 -140 -73 -15 -13 -56 -51
-90 -86 -82 -81 -100 -88 -133 -50 -20 25 -22 31 -10 39 8 5 19 9 24 9 17 0
64 45 73 71 13 32 6 99 -13 135 -15 29 -14 29 20 41 20 7 45 19 57 28 28 19
27 19 50 -10z m384 -11 c-3 -8 -10 -13 -16 -9 -6 4 -5 13 3 26 13 21 23 8 13
-17z m3016 9 c29 -16 55 -29 57 -30 1 -1 -4 -24 -13 -51 -24 -70 -14 -119 33
-159 14 -13 31 -23 36 -23 6 0 16 -4 24 -9 10 -7 8 -14 -10 -35 -12 -14 -31
-26 -41 -26 -26 0 -138 113 -138 138 0 29 -66 84 -88 74 -10 -5 -36 -2 -65 8
l-48 16 49 17 c27 10 59 27 70 38 12 10 25 19 30 19 14 0 43 36 35 43 -15 16
21 5 69 -20z m-3222 -13 c0 -5 -2 -10 -4 -10 -3 0 -8 5 -11 10 -3 6 -1 10 4
10 6 0 11 -4 11 -10z m2980 0 c0 -5 -2 -10 -4 -10 -3 0 -8 5 -11 10 -3 6 -1
10 4 10 6 0 11 -4 11 -10z m-3384 -55 c78 -80 73 -121 -18 -158 -37 -15 -38
-15 -38 4 0 12 9 32 20 46 23 30 25 46 7 65 -29 30 -58 79 -52 88 11 18 26 10
81 -45z m3794 -5 c-11 -16 -25 -32 -30 -35 -16 -10 -11 -45 10 -72 24 -31 17
-47 -13 -32 -49 26 -50 70 -1 127 41 48 66 57 34 12z m-4204 -37 c29 -33 12
-43 -33 -19 -32 16 -41 13 -65 -26 -12 -18 -23 -25 -36 -21 -14 3 -36 -12 -76
-52 -56 -56 -84 -69 -52 -24 11 16 14 34 9 61 -3 22 -2 38 3 37 14 -4 94 23
94 31 0 4 11 6 24 5 14 -2 40 5 58 15 44 25 47 25 74 -7z m4614 18 c0 -11 34
-24 66 -25 12 -1 29 -8 38 -15 9 -7 16 -11 16 -8 0 2 17 -1 38 -8 35 -13 37
-15 34 -53 -2 -26 2 -44 12 -55 20 -20 20 -27 0 -27 -9 0 -18 9 -21 20 -3 10
-14 22 -25 26 -11 3 -17 8 -14 11 9 9 -24 35 -62 48 -22 8 -42 23 -50 38 -12
25 -13 26 -54 11 -58 -20 -72 -18 -48 6 11 11 20 25 20 30 0 6 11 10 25 10 14
0 25 -4 25 -9z m-3627 -32 c-4 -15 -8 -17 -14 -8 -8 14 -3 29 11 29 4 0 6 -9
3 -21z m2658 10 c19 -6 43 -14 54 -19 72 -28 107 -44 111 -51 9 -16 -185 -92
-230 -91 -17 0 -40 -7 -51 -17 -11 -10 -85 -34 -172 -55 -139 -34 -156 -36
-189 -24 -34 12 -37 11 -55 -11 -21 -25 -77 -41 -243 -65 -21 -4 -41 -8 -45
-10 -3 -2 -27 6 -54 18 l-47 21 44 44 c44 44 46 44 118 45 70 2 147 21 149 38
1 4 2 13 3 20 1 16 50 28 84 21 44 -9 63 -5 84 17 22 24 55 19 76 -12 12 -16
22 -18 75 -12 34 4 101 8 149 9 128 2 163 32 118 100 -19 28 -25 45 -16 45 1
0 18 -5 37 -11z m-2741 -89 c0 -52 -3 -70 -13 -70 -17 0 -40 -41 -35 -63 2 -9
-6 -22 -16 -30 -26 -19 -24 -77 3 -96 23 -15 27 -29 9 -28 -56 2 -61 -2 -55
-40 4 -21 13 -43 21 -49 12 -9 9 -20 -20 -72 -35 -61 -128 -172 -145 -172 -5
0 -9 6 -9 14 0 15 -16 15 -75 -1 -22 -5 -62 -10 -90 -9 l-50 1 -3 38 c-3 33 0
38 25 48 15 6 43 8 61 4 45 -8 58 5 54 54 -4 43 -17 52 -36 26 -13 -18 -55
-28 -70 -16 -9 7 -60 8 -88 2 -3 0 -20 -12 -37 -26 -29 -25 -30 -25 -41 -6 -6
12 -8 49 -5 93 9 103 11 108 49 108 21 0 43 9 60 25 15 14 31 25 35 25 5 0 14
7 21 15 7 9 29 23 49 32 50 23 94 57 175 131 58 54 187 132 218 132 4 0 8 -31
8 -70z m835 -10 c3 -6 -1 -7 -9 -4 -18 7 -21 14 -7 14 6 0 13 -4 16 -10z
m-343 -23 c7 -9 24 -17 38 -16 111 3 130 -2 130 -29 0 -25 70 -52 124 -48 33
3 40 -1 57 -28 22 -35 17 -42 -32 -49 -45 -6 -55 -11 -117 -68 l-51 -47 29 -5
c27 -6 123 -67 116 -74 -2 -2 -12 -5 -22 -7 -62 -12 -140 -41 -153 -57 -9 -10
-27 -20 -41 -23 -139 -25 -242 -50 -275 -65 -22 -11 -51 -21 -65 -24 -14 -4
-70 -21 -125 -40 l-100 -34 -26 23 c-14 13 -37 24 -51 24 -52 0 -49 20 13 114
32 49 59 84 59 78 0 -7 0 -14 0 -17 -1 -22 39 -71 78 -96 47 -30 76 -36 102
-19 12 8 11 14 -7 47 -11 21 -27 64 -34 96 -14 68 -28 83 -59 67 -16 -8 -25
-8 -35 0 -21 17 -6 48 26 55 41 9 64 46 52 82 -5 16 -7 39 -3 53 9 35 1 57
-21 63 -10 3 -19 12 -19 20 0 13 15 15 98 12 53 -2 123 -6 154 -9 48 -5 61 -3
77 13 33 33 63 36 83 8z m2482 -24 c-48 -217 -146 -477 -213 -563 l-20 -25
-58 17 c-71 20 -169 54 -243 84 -30 12 -71 25 -90 27 -19 3 -47 8 -62 11 -16
3 -40 8 -55 11 -67 11 -88 19 -102 36 -9 10 -58 30 -110 45 -64 18 -102 35
-122 54 l-29 27 138 22 c75 12 151 26 167 30 29 8 30 7 32 -28 1 -20 6 -65 10
-101 7 -58 11 -65 32 -68 62 -9 90 26 106 129 5 36 3 49 -15 71 l-21 27 28 7
c82 19 186 45 208 54 24 9 26 8 24 -12 -1 -13 1 -59 5 -103 4 -44 9 -109 12
-145 3 -36 9 -69 13 -73 10 -10 32 23 62 93 13 30 36 75 51 100 30 48 42 132
27 176 -7 19 -1 24 49 43 31 12 80 34 107 50 65 38 77 38 69 4z m201 -128 c22
-11 60 -36 85 -56 25 -20 55 -39 67 -43 24 -8 30 -27 36 -132 5 -70 -11 -106
-33 -79 -26 32 -106 55 -132 38 -25 -15 -63 -8 -82 15 -22 28 -29 23 -32 -25
-3 -53 9 -63 65 -58 57 6 85 -16 79 -62 -3 -27 -5 -28 -63 -29 -33 0 -77 6
-98 14 -34 13 -40 13 -56 -2 -11 -10 -28 -15 -42 -12 -30 6 -89 27 -89 32 0 2
15 36 34 76 45 98 88 214 116 319 l24 86 41 -31 c22 -17 58 -40 80 -51z
m-3714 32 c-6 -6 -11 -26 -11 -44 0 -27 -4 -33 -20 -33 -22 0 -39 28 -24 39 5
3 17 19 27 34 10 15 23 25 28 21 7 -4 7 -10 0 -17z m1357 -309 c-5 -13 -12
-18 -92 -52 -40 -18 -56 -22 -53 -12 3 7 1 18 -5 24 -7 7 3 14 33 22 24 6 55
15 69 20 36 12 52 12 48 -2z m1207 -10 c43 -11 50 -16 52 -40 2 -31 -4 -34
-32 -15 -17 12 -87 38 -145 54 -12 3 -12 6 -1 12 16 10 58 6 126 -11z m-192
-33 c35 -19 70 -35 79 -35 8 0 43 -14 78 -31 46 -22 74 -30 99 -27 33 4 78
-10 236 -77 82 -35 107 -44 113 -42 4 1 39 -10 77 -25 39 -14 79 -29 90 -33
18 -6 17 -10 -19 -40 -66 -58 -229 -127 -239 -101 -3 6 -17 18 -33 26 -16 8
-40 22 -53 32 -13 10 -30 18 -37 18 -11 0 -183 130 -334 253 -8 7 -41 32 -72
57 -51 39 -69 60 -53 60 2 0 33 -16 68 -35z m-1257 -50 c-10 -8 -66 -30 -124
-49 -79 -27 -108 -33 -113 -24 -5 7 -6 14 -5 16 8 7 223 71 241 71 19 0 19 0
1 -14z m324 8 c-1 -14 -288 -233 -305 -233 -9 0 -26 -11 -37 -25 -11 -14 -25
-25 -32 -25 -7 0 -21 -9 -31 -20 -10 -11 -24 -20 -32 -20 -7 0 -16 -7 -20 -16
-3 -8 -16 -20 -30 -25 -13 -5 -28 -20 -33 -34 -7 -18 -17 -25 -36 -25 -15 0
-24 3 -21 6 3 4 2 15 -4 26 -8 15 -20 18 -64 17 -63 -2 -70 -6 -84 -42 -13
-34 -31 -35 -31 -2 0 14 -6 25 -12 25 -7 1 -30 3 -51 6 -48 7 -76 0 -102 -24
-18 -16 -25 -17 -54 -7 l-34 11 46 27 c25 15 50 27 56 27 17 0 71 61 71 80 0
18 28 33 85 46 17 4 48 15 70 24 63 27 79 32 102 36 12 1 43 12 70 24 127 57
231 92 264 91 20 -1 58 8 85 20 27 12 59 21 71 21 12 -1 25 3 28 8 7 12 65 14
65 3z m1395 -27 c75 -23 111 -39 113 -50 4 -20 8 -20 -69 5 -121 39 -179 62
-179 70 0 14 19 11 135 -25z m-3387 -48 c19 -19 14 -29 -8 -16 -20 13 -27 28
-12 28 4 0 13 -5 20 -12z m4962 2 c0 -5 -4 -10 -9 -10 -5 0 -18 -3 -28 -6 -16
-5 -16 -4 1 10 23 18 36 20 36 6z m-3633 -52 c-7 -4 -37 -15 -67 -24 -30 -9
-59 -19 -65 -24 -5 -4 -22 -10 -37 -14 -25 -6 -28 -4 -28 18 0 20 8 27 48 39
46 15 100 30 114 31 3 1 10 4 14 8 4 4 13 0 20 -10 9 -13 9 -19 1 -24z m1353
5 c6 -21 13 -55 16 -77 6 -43 50 -116 70 -116 8 0 14 -10 14 -24 0 -12 11 -35
25 -50 14 -15 23 -32 20 -37 -4 -5 5 -19 17 -32 l24 -24 -35 -81 c-32 -75 -38
-82 -64 -82 -31 0 -97 -62 -122 -115 -8 -16 -19 -37 -25 -45 -20 -31 -44 -96
-42 -117 0 -13 -7 -27 -18 -33 -16 -9 -18 -5 -20 43 -1 48 -1 245 2 518 1 63
-4 130 -10 147 l-11 32 59 -40 c32 -22 60 -45 63 -52 3 -7 5 -4 5 7 0 11 5 36
10 56 5 20 8 64 6 97 -2 34 -1 62 1 62 2 0 9 -17 15 -37z m1004 10 c17 -3 36
-9 41 -13 6 -4 25 -11 44 -15 l33 -7 -20 -21 c-20 -20 -23 -20 -59 -4 -21 8
-56 21 -78 28 -48 14 -60 23 -50 39 4 7 17 9 32 5 14 -3 39 -9 57 -12z m-1590
-11 c-39 -33 -54 -69 -58 -147 -3 -41 -3 -75 -1 -75 2 0 10 6 17 13 8 6 24 18
37 25 19 11 22 11 16 0 -15 -26 -49 -58 -61 -58 -14 0 -29 -36 -26 -61 2 -8
-6 -23 -17 -33 -15 -14 -24 -15 -39 -7 -18 10 -27 3 -74 -51 -29 -34 -77 -85
-105 -113 -29 -28 -53 -56 -53 -62 0 -9 -10 -11 -32 -6 -39 7 -46 12 -32 21 6
4 16 17 23 30 10 19 9 29 -6 60 -16 33 -22 37 -52 35 l-33 -2 40 35 c22 19 43
47 47 62 3 15 20 39 38 53 177 142 381 299 386 299 3 0 -3 -8 -15 -18z m259
-74 c3 -22 15 -54 26 -69 17 -23 20 -38 16 -71 -20 -145 -28 -550 -12 -585 9
-20 4 -43 -7 -32 -11 10 -40 182 -50 289 -3 30 -8 80 -11 110 -6 64 -12 147
-20 280 -6 92 -5 95 17 106 35 17 35 17 41 -28z m617 -22 c36 -28 67 -53 70
-56 3 -4 32 -26 64 -51 l60 -44 -35 -5 c-58 -9 -137 -1 -195 20 -22 8 -30 17
-30 33 1 13 -7 26 -20 31 -14 6 -21 18 -21 35 0 14 -7 42 -15 61 l-17 36 37
-4 c25 -3 58 -21 102 -56z m829 -94 c5 -10 22 -24 38 -32 80 -41 123 -74 129
-96 4 -17 15 -27 36 -31 16 -3 35 -15 44 -27 8 -11 23 -22 34 -22 11 -1 26 -2
34 -3 17 -1 28 -52 15 -68 -8 -8 -24 -7 -65 4 -63 18 -98 8 -108 -33 -3 -12
-19 -36 -36 -52 -16 -17 -30 -33 -30 -36 0 -11 69 -6 82 7 41 38 44 38 84 6
32 -25 44 -29 72 -24 l33 6 -28 -40 c-16 -21 -41 -45 -58 -53 -16 -7 -35 -23
-41 -36 -11 -23 -13 -22 -111 55 -311 244 -413 327 -406 333 5 3 28 15 53 25
51 21 171 97 190 120 16 20 27 19 39 -3z m-1625 -29 c-27 -158 -70 -321 -80
-310 -3 2 0 16 6 31 15 40 12 74 -6 84 -13 7 -15 15 -7 38 6 16 16 28 23 26
18 -4 30 17 30 54 0 29 25 104 34 104 3 0 3 -12 0 -27z m304 -58 c0 -72 -1
-75 -23 -75 -20 0 -22 3 -16 38 4 20 7 51 6 69 -1 25 2 30 12 21 10 -8 13 -6
13 6 0 9 2 16 4 16 2 0 4 -34 4 -75z m-244 -75 c12 -134 16 -171 37 -300 17
-109 40 -202 64 -257 l23 -52 -67 -20 c-78 -24 -172 -82 -219 -135 -18 -21
-35 -37 -37 -35 -1 2 -13 22 -26 44 -85 150 -96 175 -105 256 l-5 45 58 28
c72 35 139 103 176 180 27 54 66 195 82 290 3 21 8 36 10 35 1 -2 6 -38 9 -79z
m809 33 c27 -3 78 0 113 6 65 12 65 12 92 -17 15 -16 40 -48 56 -70 31 -45 43
-51 52 -27 8 19 16 19 40 -3 10 -9 39 -33 64 -52 25 -19 47 -37 50 -40 3 -3
57 -46 120 -95 63 -49 122 -95 130 -102 8 -6 39 -30 68 -53 55 -43 68 -67 30
-56 -13 4 -50 9 -82 12 -33 3 -64 8 -69 11 -25 16 -133 32 -212 33 -114 1
-158 11 -265 62 l-85 40 35 14 c19 8 42 18 50 23 34 19 9 88 -45 124 -19 12
-38 31 -43 42 -5 11 -31 44 -57 73 -41 45 -53 53 -77 50 -20 -3 -34 2 -50 20
l-23 25 30 -8 c17 -4 52 -9 78 -12z m-2051 -38 c26 -10 37 -22 41 -44 9 -45
49 -66 129 -67 37 0 70 -2 72 -5 3 -3 -63 -59 -145 -124 -174 -139 -190 -144
-251 -85 -21 19 -38 41 -38 48 0 7 -7 15 -15 18 -27 11 -16 19 26 19 30 0 46
6 58 21 25 32 43 33 74 8 16 -13 42 -24 58 -24 31 0 38 14 15 27 -7 4 -23 27
-35 51 -29 57 -52 67 -121 49 -62 -17 -70 -15 -70 16 0 35 16 50 49 50 21 0
33 6 36 18 5 16 43 36 71 38 6 1 27 -6 46 -14z m538 -104 c0 -10 -9 -21 -20
-24 -15 -4 -20 -14 -20 -37 0 -48 16 -70 53 -71 l32 -1 -27 -10 c-25 -9 -28
-14 -28 -58 0 -59 14 -72 76 -68 59 4 71 -16 17 -31 -21 -6 -78 -11 -128 -11
-49 -1 -119 -7 -155 -16 -36 -8 -99 -20 -140 -27 -41 -7 -85 -18 -97 -25 -29
-16 -30 -16 -35 11 -4 19 30 49 226 204 127 100 234 182 239 183 4 0 7 -8 7
-19z m951 -35 c0 -22 1 -78 2 -123 2 -80 -3 -93 -32 -93 -5 0 -7 230 -2 262 0
4 8 5 16 2 10 -4 15 -20 16 -48z m419 -82 c11 -26 20 -56 20 -68 0 -49 21 -96
49 -111 28 -14 31 -13 62 15 19 16 38 30 42 30 5 0 6 -26 3 -57 -16 -142 -27
-177 -87 -285 -32 -59 -59 -114 -59 -122 0 -24 -16 -19 -36 12 -52 81 -178
165 -289 193 l-48 12 38 34 c41 37 46 38 63 21 20 -20 58 6 96 66 19 30 47 63
61 72 32 21 64 65 75 103 6 23 3 33 -16 54 -21 23 -22 30 -12 52 6 14 13 25
14 25 2 0 12 -21 24 -46z m-1085 -86 c4 -4 -11 -16 -32 -27 -44 -22 -71 -15
-58 15 5 11 7 24 6 31 -1 8 8 8 38 -1 22 -6 43 -14 46 -18z m95 -58 c0 -5 -4
-10 -10 -10 -5 0 -10 5 -10 10 0 6 5 10 10 10 6 0 10 -4 10 -10z m1340 -121
c0 -6 -7 -4 -15 4 -30 30 -61 5 -56 -43 4 -31 -27 27 -34 63 -6 33 -4 38 16
46 20 8 29 4 57 -25 17 -18 32 -39 32 -45z m170 -6 l65 -8 -1 -60 c0 -41 -7
-73 -22 -102 l-21 -41 -58 18 c-50 16 -58 21 -55 41 1 13 0 30 -4 39 -4 8 -8
30 -10 49 -2 18 -14 52 -27 75 l-24 42 46 -22 c25 -13 75 -27 111 -31z m-1742
5 c-20 -41 -28 -77 -32 -145 -2 -38 -4 -40 -39 -47 -15 -3 -41 -11 -57 -20
-29 -14 -30 -14 -36 11 -4 14 -22 45 -41 70 -27 36 -33 52 -31 81 3 28 9 37
23 38 80 4 155 18 185 34 49 27 51 25 28 -22z m140 17 c2 -2 -4 -18 -12 -36
-9 -19 -15 -27 -15 -19 4 52 -22 70 -61 43 -21 -15 -22 -15 -11 6 10 18 17 20
54 15 23 -4 43 -8 45 -9z m663 3 c6 -35 2 -43 -18 -46 -18 -3 -23 1 -23 21 0
13 2 26 5 29 8 8 35 5 36 -4z m-1051 -40 c-1 -37 -26 -61 -68 -64 -24 -2 -51
-8 -61 -14 -16 -8 -18 -4 -19 31 -2 33 2 41 21 49 35 14 127 12 127 -2z m335
2 c3 -5 1 -10 -4 -10 -6 0 -11 5 -11 10 0 6 2 10 4 10 3 0 8 -4 11 -10z m1455
0 c0 -5 -5 -10 -11 -10 -5 0 -7 5 -4 10 3 6 8 10 11 10 2 0 4 -4 4 -10z m443
1 c22 -9 26 -16 24 -49 l-1 -38 -37 13 c-33 11 -99 10 -118 -2 -9 -5 -34 62
-27 73 8 13 128 15 159 3z m-2503 -41 c6 -11 20 -20 30 -20 27 0 25 -22 -2
-47 -41 -37 -63 -44 -86 -27 -21 14 -21 17 -7 51 27 65 46 78 65 43z m2715
-20 l20 -22 -30 -24 c-37 -29 -55 -30 -83 -4 -26 25 -29 50 -4 50 9 0 23 9 30
20 14 23 33 17 67 -20z m-2028 -10 c3 -45 52 -154 108 -240 32 -50 34 -59 25
-87 -16 -45 -60 -57 -60 -16 0 8 -7 30 -16 48 -22 47 -72 69 -144 62 -56 -5
-56 -5 -58 24 -1 16 -7 40 -12 54 -14 36 -13 55 3 55 19 0 106 80 123 112 20
38 29 35 31 -12z m1293 30 c0 -18 116 -130 135 -130 14 0 16 -5 11 -27 -4 -16
-9 -45 -13 -65 -3 -21 -11 -38 -17 -39 -6 0 -35 0 -63 1 -48 1 -113 -22 -113
-40 0 -3 -13 -20 -29 -37 -16 -18 -31 -37 -33 -44 -5 -16 -48 -1 -48 17 0 19
36 91 66 129 36 47 84 163 86 206 1 22 5 39 10 39 4 0 8 -5 8 -10z m-1770 -84
c0 -2 -7 -20 -15 -39 -21 -50 -24 -114 -10 -164 11 -35 11 -43 0 -43 -18 0
-47 29 -40 41 10 15 -24 68 -59 92 -33 22 -34 24 -18 43 10 11 30 28 46 38 36
23 96 43 96 32z m2330 -37 c28 -17 50 -34 50 -38 0 -5 -19 -16 -42 -25 -45
-17 -88 -69 -88 -106 0 -18 -36 -47 -46 -37 -3 2 0 16 6 31 14 38 13 104 -4
159 -7 25 -11 48 -8 51 12 13 86 -7 132 -35z m-2044 -111 c-1 -29 -42 -36 -85
-14 -42 22 -28 48 39 69 20 7 48 -26 46 -55z m1741 31 c3 -15 -29 -42 -64 -53
-19 -6 -23 -4 -23 16 0 13 7 33 15 45 12 17 21 20 42 14 16 -4 29 -14 30 -22z
m-2018 -358 c17 -11 18 -16 27 -136 3 -49 8 -98 10 -108 6 -33 -5 -45 -34 -38
l-27 7 -3 142 c-2 78 0 142 5 142 4 0 14 -4 22 -9z m2199 -131 l-3 -140 -27
-9 c-41 -15 -40 -23 -23 184 7 75 20 104 48 105 4 0 6 -63 5 -140z m-2208
-323 c0 -13 -11 -61 -25 -108 -36 -122 -33 -115 -56 -91 -11 12 -25 22 -32 22
-35 1 -37 16 -11 96 15 43 31 85 37 92 5 6 27 12 48 12 34 0 39 -3 39 -23z
m2304 -60 c15 -45 30 -87 32 -94 3 -6 -11 -16 -31 -23 -20 -7 -39 -18 -42 -26
-8 -21 -20 -17 -26 9 -2 12 -16 63 -30 114 -14 50 -23 94 -21 96 3 2 24 5 48
5 l43 1 27 -82z m-2531 -251 c17 -13 17 -17 -4 -77 -11 -35 -23 -73 -25 -83
-8 -40 -28 -93 -56 -148 -33 -64 -60 -75 -93 -38 -19 21 -23 10 50 175 7 17
20 46 28 66 19 45 65 119 75 119 4 0 15 -7 25 -14z m2732 -93 c28 -55 63 -130
78 -166 28 -63 28 -65 11 -86 -35 -40 -60 -28 -97 47 -19 37 -44 105 -57 152
-13 47 -27 89 -32 95 -19 22 9 69 37 62 6 -2 33 -49 60 -104z m-3092 -322 c-3
-11 4 -26 16 -38 20 -18 20 -19 -42 -68 -62 -51 -123 -94 -188 -133 l-36 -22
-22 42 c-21 41 -22 43 -4 55 10 8 25 20 34 27 58 49 179 136 188 136 6 0 11 4
11 9 0 10 30 20 42 14 3 -2 4 -11 1 -22z m3424 -3 c29 -18 53 -36 53 -40 0 -4
4 -8 9 -8 6 0 31 -14 58 -32 45 -31 46 -33 23 -38 -17 -4 -28 -16 -35 -38 -5
-18 -12 -32 -17 -32 -10 0 -98 60 -123 83 -11 11 -30 26 -43 34 -23 16 -23 16
-4 37 11 12 18 31 17 44 -1 12 1 22 4 22 3 0 29 -14 58 -32z m-1435 -98 c15
-38 3 -121 -26 -178 -14 -28 -30 -53 -36 -57 -13 -8 -13 8 -1 21 5 5 15 36 22
69 16 77 5 146 -27 185 l-26 30 42 -23 c23 -12 47 -33 52 -47z m-1788 -25 c4
-44 9 -114 11 -155 6 -82 12 -153 19 -215 4 -39 3 -41 -30 -51 -29 -9 -34 -9
-35 5 0 9 -2 25 -4 36 -15 79 -19 129 -20 268 l-1 158 26 19 c14 10 26 18 27
17 0 -1 4 -38 7 -82z m3020 -103 c0 -81 -4 -169 -9 -197 -4 -27 -9 -66 -10
-85 -2 -19 -4 -38 -4 -41 -1 -3 -17 -1 -37 5 -35 11 -35 11 -29 56 8 58 12
110 21 240 3 58 8 114 9 125 1 11 3 35 4 53 l1 33 28 -21 27 -20 -1 -148z
m-1498 88 c-4 -41 -9 -130 -12 -196 -8 -191 -5 -179 -39 -182 l-30 -3 1 221
c1 240 0 238 56 236 l30 -1 -6 -75z m-193 9 c-4 -51 -15 -82 -71 -187 -65
-125 -66 -126 -73 -92 -15 74 6 154 64 240 26 39 77 100 83 100 1 0 0 -27 -3
-61z m335 -2 c24 -51 21 -108 -7 -170 l-18 -39 0 126 c1 69 2 126 3 126 1 0
11 -20 22 -43z m-1818 -94 c-4 -38 -5 -142 -3 -233 2 -91 3 -174 2 -185 -7
-182 20 -411 56 -485 6 -14 13 -68 14 -120 2 -52 4 -125 6 -163 l3 -67 -97 4
c-53 2 -103 5 -112 5 -30 2 -12 58 52 162 84 136 89 146 89 165 0 10 -5 14
-16 10 -15 -6 -72 -12 -181 -20 -50 -4 -52 -3 -42 16 10 18 9 19 -13 7 -21
-11 -22 -11 -9 4 7 10 9 17 3 17 -5 0 -10 10 -11 23 -2 53 -6 85 -11 82 -3 -2
-12 0 -19 4 -10 7 -6 30 18 108 17 55 31 103 31 107 0 16 -43 1 -129 -44 -93
-50 -93 -50 -127 -34 -19 9 -34 20 -34 25 0 4 -12 7 -27 6 -24 -2 -28 2 -29
25 -1 16 2 49 7 76 15 98 20 152 14 152 -17 0 -117 -76 -178 -134 -52 -51 -74
-66 -97 -66 -17 0 -30 3 -30 8 0 15 138 144 148 138 19 -12 180 85 325 195 35
26 58 37 72 33 13 -3 30 3 45 16 14 12 43 36 64 53 54 44 178 149 194 164 24
23 28 14 22 -54z m3369 -13 c93 -79 115 -89 149 -71 15 8 17 4 14 -28 l-4 -38
-43 15 c-60 19 -92 3 -125 -63 -20 -42 -24 -65 -25 -141 0 -76 4 -99 24 -142
35 -75 46 -67 44 29 -1 45 2 91 7 103 5 11 9 16 9 9 1 -7 13 -23 28 -37 25
-23 27 -31 30 -123 1 -54 5 -120 8 -148 10 -103 15 -362 7 -405 -6 -37 -11
-45 -31 -46 -12 -1 -24 4 -26 10 -10 28 -16 98 -16 179 0 56 -4 87 -10 85 -6
-2 -10 -7 -10 -11 0 -4 -9 -32 -20 -64 -47 -123 -78 -258 -79 -335 0 -59 15
-78 26 -33 9 37 21 30 16 -9 -2 -19 -12 -43 -23 -54 -15 -17 -27 -19 -78 -15
-59 6 -61 5 -71 -21 -5 -15 -10 -37 -10 -49 -1 -12 -9 -38 -20 -57 -10 -19
-26 -52 -35 -72 -10 -21 -21 -38 -25 -38 -4 0 -6 35 -4 78 2 42 5 147 8 232 3
85 8 196 12 246 6 82 8 91 24 87 19 -5 21 -32 6 -80 -23 -77 -25 -193 -3 -227
41 -62 147 -3 147 83 0 27 -37 64 -56 57 -13 -5 -15 8 -11 92 2 53 12 122 21
152 28 94 48 231 47 330 0 52 0 118 1 145 3 147 1 356 -5 403 -3 28 -2 52 1
52 4 0 49 -36 101 -80z m-3811 -62 c2 -15 12 -34 23 -41 18 -13 16 -16 -34
-42 -89 -48 -191 -108 -209 -123 -16 -14 -18 -13 -18 6 0 26 -36 52 -73 52
-18 0 -27 5 -25 12 5 15 299 168 318 165 8 -1 16 -14 18 -29z m1929 -143 c0
-74 -4 -125 -9 -125 -6 0 -23 10 -40 21 -27 20 -30 26 -25 62 4 30 63 167 71
167 1 0 2 -56 3 -125z m430 -63 c49 -59 19 -137 -102 -266 -22 -24 -26 -25
-25 -10 4 35 0 52 -15 68 -12 11 -13 21 -5 41 5 14 10 59 10 99 0 76 6 89 45
99 34 9 69 -3 92 -31z m1808 -12 c60 -11 111 -20 114 -20 3 0 -11 -13 -30 -30
-20 -16 -42 -43 -49 -60 -7 -16 -14 -30 -17 -30 -9 0 -70 34 -110 61 -35 24
-41 34 -38 57 2 15 4 30 4 35 1 10 3 10 126 -13z m-4520 -64 c12 -11 9 -16
-13 -33 -53 -38 -56 -39 -48 -7 4 16 14 35 23 42 21 15 21 15 38 -2z m2291
-47 c16 -18 16 -23 -18 -95 -20 -41 -38 -72 -41 -67 -14 23 -37 122 -37 159
l0 42 39 -10 c22 -6 48 -19 57 -29z m-1302 -61 c22 -108 38 -211 41 -264 l3
-60 -28 4 c-15 2 -37 -1 -48 -7 -18 -10 -21 -7 -31 37 -6 26 -13 76 -16 112
-2 36 -9 90 -14 120 -5 30 -8 55 -7 56 9 4 83 32 87 33 4 1 9 -14 13 -31z
m2954 10 c18 -5 31 -12 28 -16 -4 -8 -15 -81 -22 -152 -6 -71 -15 -133 -21
-157 -4 -19 -8 -21 -25 -12 -11 6 -33 9 -50 7 l-29 -5 5 68 c7 80 13 121 32
212 8 38 14 71 14 74 0 3 8 2 18 -2 9 -4 32 -11 50 -17z m-1568 -55 c0 -35 -7
-72 -18 -93 -28 -56 -76 -51 -66 8 6 30 66 142 77 142 4 0 7 -26 7 -57z m2100
1 c36 -15 84 -42 107 -61 23 -18 45 -33 49 -33 10 0 44 -31 44 -41 0 -4 -20
-11 -45 -15 -25 -3 -48 -10 -51 -15 -3 -5 -16 -9 -29 -9 -29 0 -49 32 -39 63
l7 22 -22 -20 c-18 -15 -21 -26 -16 -52 4 -25 2 -35 -9 -39 -8 -3 -25 -26 -36
-50 -12 -24 -23 -44 -24 -44 -2 0 -3 15 -3 33 0 17 -4 61 -7 97 -15 146 -15
202 -3 197 7 -3 41 -17 77 -33z m-5015 -175 c3 -3 -6 -18 -19 -32 -36 -38
-106 -35 -106 4 0 10 -4 19 -10 19 -5 0 -10 4 -10 8 0 9 136 10 145 1z m126
-26 c-12 -20 -14 -14 -5 12 4 9 9 14 11 11 3 -2 0 -13 -6 -23z m2933 -42 c-2
-2 -13 4 -24 14 -16 14 -17 21 -8 32 9 12 14 9 23 -14 7 -15 11 -30 9 -32z
m-245 -67 c-10 -27 -15 -135 -7 -178 2 -15 -6 -22 -43 -31 -26 -7 -61 -19 -78
-28 -17 -8 -33 -12 -36 -7 -3 5 -1 11 4 14 5 3 14 30 21 58 6 29 14 62 17 73
5 19 124 138 131 131 1 -2 -3 -16 -9 -32z m-3024 -3 c3 -1 12 -1 22 -1 21 0
-28 -44 -74 -65 -18 -9 -33 -20 -33 -25 0 -5 -7 -7 -15 -4 -12 5 -12 11 2 47
24 61 30 67 64 57 16 -5 32 -9 34 -9z m3315 -24 c26 -22 26 -77 0 -108 -10
-13 -19 -19 -20 -13 0 6 -18 38 -40 70 -22 33 -40 66 -40 75 0 15 5 15 40 5
22 -6 49 -19 60 -29z m-143 16 c-4 -3 9 -34 28 -69 47 -83 46 -101 -2 -99 -34
2 -39 6 -49 36 -15 43 1 139 22 139 4 0 4 -3 1 -7z m354 -125 c10 -21 19 -55
19 -78 l0 -40 -37 16 c-21 9 -64 23 -95 31 l-58 15 30 35 c17 19 36 54 42 79
l12 44 34 -33 c19 -17 42 -49 53 -69z m-1806 -58 c3 -41 8 -86 10 -100 3 -14
7 -51 9 -82 5 -56 5 -58 -19 -58 -21 0 -25 5 -26 33 -1 17 -3 43 -4 57 -2 14
-5 69 -8 122 -4 84 -3 97 12 101 9 2 17 3 17 3 1 -1 5 -35 9 -76z m4425 15 c0
-8 -4 -15 -10 -15 -5 0 -7 7 -4 15 4 8 8 15 10 15 2 0 4 -7 4 -15z m-6285 -95
c3 -5 1 -10 -4 -10 -6 0 -11 5 -11 10 0 6 2 10 4 10 3 0 8 -4 11 -10z m3 -47
c4 -41 5 -64 3 -98 -1 -26 -3 -28 -14 -14 -7 10 -11 39 -9 77 4 64 16 84 20
35z m1782 -193 c4 0 -11 -55 -35 -122 -37 -108 -63 -202 -79 -288 -4 -17 -16
-29 -36 -37 -33 -12 -34 -11 -44 31 -4 17 -16 43 -28 58 -16 23 -17 32 -8 43
7 8 9 15 4 15 -4 0 1 7 12 16 10 8 14 13 7 10 -27 -14 -18 46 13 84 7 8 14 25
16 37 1 13 37 63 78 113 72 85 75 88 83 65 5 -14 12 -25 17 -25z m-1793 -69
c1 -11 -6 -21 -18 -24 -24 -7 -26 18 -1 32 9 6 17 11 17 11 1 0 1 -9 2 -19z
m6440 3 c-4 -4 1 -19 10 -34 14 -24 14 -33 4 -59 -13 -31 -47 -68 -36 -40 3 8
7 41 9 74 6 72 5 65 13 65 3 0 3 -3 0 -6z m-456 -31 c-12 -20 -14 -14 -5 12 4
9 9 14 11 11 3 -2 0 -13 -6 -23z m-5984 -80 c-3 -3 -11 -2 -17 2 -9 6 -9 10 1
16 14 8 27 -7 16 -18z m-101 -10 c-2 -9 -9 -19 -17 -21 -11 -3 -11 -1 1 7 13
10 13 11 0 11 -13 0 -13 1 0 10 19 12 19 13 16 -7z m1946 -15 c-8 -8 -9 -4 -5
13 4 13 8 18 11 10 2 -7 -1 -18 -6 -23z m-1944 -71 c2 -37 0 -47 -12 -47 -12
0 -15 11 -15 50 2 65 23 62 27 -3z m1937 16 c-4 -21 -9 -45 -10 -53 -2 -8 -4
-32 -4 -52 -1 -26 -6 -38 -15 -38 -12 0 -13 6 -6 28 4 15 14 55 20 90 7 34 15
62 17 62 3 0 2 -17 -2 -37z m-1831 -37 c3 -25 0 -36 -8 -33 -11 4 -17 54 -8
70 7 14 13 1 16 -37z m1536 -11 c-14 -17 -30 -20 -30 -6 0 5 8 12 18 14 9 3
19 5 21 6 2 0 -2 -6 -9 -14z m-1553 -230 c19 -81 19 -85 2 -85 -10 0 -22 -8
-28 -17 -8 -15 -13 -10 -31 32 -22 49 -50 124 -50 131 0 2 13 4 29 4 17 0 33
5 36 10 13 22 22 7 42 -75z m153 -241 c0 -8 -2 -14 -4 -14 -2 0 -11 -3 -20 -6
-11 -4 -16 0 -16 13 0 11 3 22 6 26 10 9 34 -4 34 -19z m3924 -239 c4 -10 -3
-20 -19 -27 -14 -6 -25 -15 -25 -20 0 -5 -5 -6 -10 -3 -6 4 -1 18 12 35 27 33
34 36 42 15z m-1271 -170 c18 -13 18 -14 -2 -25 -12 -6 -21 -7 -21 -1 0 5 -3
16 -6 25 -7 20 5 20 29 1z m274 -1007 c-3 -7 -5 -2 -5 12 0 14 2 19 5 13 2 -7
2 -19 0 -25z"/>
<path d="M7812 9048 c-11 -39 3 -77 21 -59 6 6 12 29 14 51 4 51 -22 56 -35 8z"/>
<path d="M8020 8987 c0 -14 -7 -47 -16 -73 -13 -38 -13 -52 -4 -73 11 -23 13
-24 24 -9 13 17 14 163 2 175 -3 4 -6 -6 -6 -20z"/>
<path d="M8110 8955 c0 -8 2 -15 4 -15 2 0 6 7 10 15 3 8 1 15 -4 15 -6 0 -10
-7 -10 -15z"/>
<path d="M3120 8905 c0 -25 14 -34 24 -16 8 12 -3 41 -15 41 -5 0 -9 -11 -9
-25z"/>
<path d="M8110 8889 c0 -24 -5 -62 -10 -84 -10 -47 -22 -163 -22 -220 1 -41
-8 -73 -36 -135 -9 -19 -17 -48 -19 -65 -2 -23 2 -17 18 23 24 61 39 67 40 15
1 -59 9 -147 14 -152 3 -2 5 36 6 85 1 49 3 105 4 124 14 145 20 438 11 447
-3 4 -6 -14 -6 -38z"/>
<path d="M7932 8840 c0 -14 2 -19 5 -12 2 6 2 18 0 25 -3 6 -5 1 -5 -13z"/>
<path d="M3130 8795 c0 -8 5 -15 10 -15 6 0 10 7 10 15 0 8 -4 15 -10 15 -5 0
-10 -7 -10 -15z"/>
<path d="M3282 8750 c0 -19 2 -27 5 -17 2 9 2 25 0 35 -3 9 -5 1 -5 -18z"/>
<path d="M3281 8694 c0 -11 3 -14 6 -6 3 7 2 16 -1 19 -3 4 -6 -2 -5 -13z"/>
<path d="M8011 8694 c0 -11 3 -14 6 -6 3 7 2 16 -1 19 -3 4 -6 -2 -5 -13z"/>
<path d="M3280 8650 c0 -25 1 -19 -16 -82 -7 -29 -13 -78 -13 -108 l1 -55 14
45 c15 48 31 220 20 220 -3 0 -6 -9 -6 -20z"/>
<path d="M7910 8618 c0 -35 12 -30 17 7 2 14 -1 25 -7 25 -5 0 -10 -14 -10
-32z"/>
<path d="M7980 8610 c0 -5 5 -10 10 -10 6 0 10 5 10 10 0 6 -4 10 -10 10 -5 0
-10 -4 -10 -10z"/>
<path d="M2955 8560 c-9 -38 -8 -100 1 -140 3 -14 6 -31 6 -38 1 -8 5 -9 11
-3 17 17 19 112 4 166 l-14 50 -8 -35z"/>
<path d="M3014 8514 c-4 -14 -2 -30 5 -37 8 -8 11 -1 11 26 0 43 -7 48 -16 11z"/>
<path d="M7924 8497 c-9 -23 21 -56 36 -41 8 8 5 18 -9 35 -18 22 -20 23 -27
6z"/>
<path d="M7984 8280 c4 -14 9 -36 12 -50 8 -37 14 -37 14 1 0 19 -8 43 -17 54
-15 19 -15 19 -9 -5z"/>
<path d="M2957 8193 c-4 -3 -7 -13 -7 -22 1 -13 3 -13 11 2 11 19 8 33 -4 20z"/>
<path d="M8660 3380 c8 -5 24 -10 34 -10 26 0 18 6 -19 14 -22 5 -26 4 -15 -4z"/>
<path d="M8763 3366 c1 -11 9 -21 17 -23 10 -3 11 -2 4 4 -6 4 -14 15 -17 23
-5 11 -6 9 -4 -4z"/>
<path d="M8780 3366 c0 -2 7 -7 16 -10 8 -3 12 -2 9 4 -6 10 -25 14 -25 6z"/>
<path d="M8750 3312 c0 -4 15 -8 33 -9 26 -2 28 0 12 7 -26 11 -45 12 -45 2z"/>
<path d="M8765 3080 c-3 -5 -1 -10 4 -10 6 0 11 5 11 10 0 6 -2 10 -4 10 -3 0
-8 -4 -11 -10z"/>
<path d="M8786 2998 c3 -4 12 -8 20 -8 8 0 14 4 14 8 0 4 -9 8 -19 8 -11 0
-17 -4 -15 -8z"/>
<path d="M6639 2307 c-9 -7 -19 -23 -22 -37 -4 -14 -4 -19 -1 -12 3 6 10 9 16
6 10 -6 -19 -44 -34 -44 -12 0 -88 -62 -88 -72 0 -6 29 -5 61 1 4 0 18 18 31
39 14 20 37 49 51 65 l26 27 -24 -6 c-29 -7 -32 2 -8 28 19 21 15 23 -8 5z"/>
<path d="M6515 1950 c3 -5 13 -10 21 -10 8 0 12 5 9 10 -3 6 -13 10 -21 10 -8
0 -12 -4 -9 -10z"/>
<path d="M8538 1800 c24 -10 26 -17 12 -40 -5 -9 -5 -19 2 -27 14 -17 10 -20
-26 -27 -54 -10 -41 -21 22 -18 15 1 22 -5 22 -17 0 -28 64 -55 103 -44 l30 8
-41 28 c-23 15 -46 27 -52 27 -5 0 -10 6 -10 14 0 8 -8 21 -18 28 -11 8 -18
25 -18 43 1 25 -3 30 -24 32 -25 3 -25 3 -2 -7z"/>
<path d="M8521 1734 c0 -11 3 -14 6 -6 3 7 2 16 -1 19 -3 4 -6 -2 -5 -13z"/>
<path d="M8755 1660 l-20 -9 20 0 c11 0 27 4 35 9 13 9 13 10 0 9 -8 0 -24 -4
-35 -9z"/>
<path d="M6725 1480 c-3 -5 -1 -10 4 -10 6 0 11 5 11 10 0 6 -2 10 -4 10 -3 0
-8 -4 -11 -10z"/>
<path d="M6945 1250 c3 -5 8 -10 11 -10 2 0 4 5 4 10 0 6 -5 10 -11 10 -5 0
-7 -4 -4 -10z"/>
<path d="M7221 944 c0 -11 3 -14 6 -6 3 7 2 16 -1 19 -3 4 -6 -2 -5 -13z"/>
</g>
</svg>
